<?xml version="1.0" encoding="UTF-8" standalone="no"?>
<!-- Created with Inkscape (http://www.inkscape.org/) -->

<svg
   xmlns:dc="http://purl.org/dc/elements/1.1/"
   xmlns:cc="http://creativecommons.org/ns#"
   xmlns:rdf="http://www.w3.org/1999/02/22-rdf-syntax-ns#"
   xmlns:svg="http://www.w3.org/2000/svg"
   xmlns="http://www.w3.org/2000/svg"
   xmlns:sodipodi="http://sodipodi.sourceforge.net/DTD/sodipodi-0.dtd"
   xmlns:inkscape="http://www.inkscape.org/namespaces/inkscape"
   version="1.1"
   id="svg2"
   xml:space="preserve"
   width="1597.0642"
   height="1653.3333"
   viewBox="0 0 1597.0642 1653.3333"
   sodipodi:docname="typewriter-5469733.ai.svg"
   inkscape:version="0.92.5 (2060ec1f9f, 2020-04-08)"><metadata
     id="metadata8"><rdf:RDF><cc:Work
         rdf:about=""><dc:format>image/svg+xml</dc:format><dc:type
           rdf:resource="http://purl.org/dc/dcmitype/StillImage" /><dc:title></dc:title></cc:Work></rdf:RDF></metadata><defs
     id="defs6"><clipPath
       clipPathUnits="userSpaceOnUse"
       id="clipPath20"><path
         d="M 0,2400 H 3839 V 0 H 0 Z"
         id="path18"
         inkscape:connector-curvature="0" /></clipPath><clipPath
       clipPathUnits="userSpaceOnUse"
       id="clipPath28"><path
         d="M 18.1607,2241.93 H 3825.16 v -1 H 18.1607 Z"
         id="path26"
         inkscape:connector-curvature="0" /></clipPath><clipPath
       clipPathUnits="userSpaceOnUse"
       id="clipPath44"><path
         d="M 18.1607,2154.07 H 3825.16 v -1 H 18.1607 Z"
         id="path42"
         inkscape:connector-curvature="0" /></clipPath><clipPath
       clipPathUnits="userSpaceOnUse"
       id="clipPath60"><path
         d="M 18.1607,2061.93 H 3825.16 v -1 H 18.1607 Z"
         id="path58"
         inkscape:connector-curvature="0" /></clipPath><clipPath
       clipPathUnits="userSpaceOnUse"
       id="clipPath76"><path
         d="M 18.1607,1970.86 H 3825.16 v -1 H 18.1607 Z"
         id="path74"
         inkscape:connector-curvature="0" /></clipPath><clipPath
       clipPathUnits="userSpaceOnUse"
       id="clipPath92"><path
         d="M 18.1607,1882.99 H 3825.16 v -1 H 18.1607 Z"
         id="path90"
         inkscape:connector-curvature="0" /></clipPath><clipPath
       clipPathUnits="userSpaceOnUse"
       id="clipPath108"><path
         d="M 18.1607,1781.21 H 3825.16 v -1 H 18.1607 Z"
         id="path106"
         inkscape:connector-curvature="0" /></clipPath><clipPath
       clipPathUnits="userSpaceOnUse"
       id="clipPath124"><path
         d="M 18.1607,1682.15 H 3825.16 v -1 H 18.1607 Z"
         id="path122"
         inkscape:connector-curvature="0" /></clipPath><clipPath
       clipPathUnits="userSpaceOnUse"
       id="clipPath140"><path
         d="M 18.1607,1594.28 H 3825.16 v -1 H 18.1607 Z"
         id="path138"
         inkscape:connector-curvature="0" /></clipPath><clipPath
       clipPathUnits="userSpaceOnUse"
       id="clipPath156"><path
         d="M 18.1607,1504.21 H 3825.16 v -1 H 18.1607 Z"
         id="path154"
         inkscape:connector-curvature="0" /></clipPath><clipPath
       clipPathUnits="userSpaceOnUse"
       id="clipPath172"><path
         d="M 18.1607,1415.51 H 3825.16 v -1 H 18.1607 Z"
         id="path170"
         inkscape:connector-curvature="0" /></clipPath><clipPath
       clipPathUnits="userSpaceOnUse"
       id="clipPath188"><path
         d="M 18.1607,1327.64 H 3825.16 v -1 H 18.1607 Z"
         id="path186"
         inkscape:connector-curvature="0" /></clipPath><clipPath
       clipPathUnits="userSpaceOnUse"
       id="clipPath204"><path
         d="M 18.1607,1235.5 H 3825.16 v -1 H 18.1607 Z"
         id="path202"
         inkscape:connector-curvature="0" /></clipPath><clipPath
       clipPathUnits="userSpaceOnUse"
       id="clipPath220"><path
         d="M 18.1607,1144.44 H 3825.16 v -1 H 18.1607 Z"
         id="path218"
         inkscape:connector-curvature="0" /></clipPath><clipPath
       clipPathUnits="userSpaceOnUse"
       id="clipPath236"><path
         d="M 18.1607,1056.57 H 3825.16 v -1 H 18.1607 Z"
         id="path234"
         inkscape:connector-curvature="0" /></clipPath><clipPath
       clipPathUnits="userSpaceOnUse"
       id="clipPath252"><path
         d="M 18.1607,954.789 H 3825.16 v -1 H 18.1607 Z"
         id="path250"
         inkscape:connector-curvature="0" /></clipPath><clipPath
       clipPathUnits="userSpaceOnUse"
       id="clipPath268"><path
         d="M 18.1607,855.723 H 3825.16 v -1 H 18.1607 Z"
         id="path266"
         inkscape:connector-curvature="0" /></clipPath><clipPath
       clipPathUnits="userSpaceOnUse"
       id="clipPath284"><path
         d="M 18.1607,767.854 H 3825.16 v -1 H 18.1607 Z"
         id="path282"
         inkscape:connector-curvature="0" /></clipPath><clipPath
       clipPathUnits="userSpaceOnUse"
       id="clipPath300"><path
         d="M 18.1607,677.789 H 3825.16 v -1 H 18.1607 Z"
         id="path298"
         inkscape:connector-curvature="0" /></clipPath><clipPath
       clipPathUnits="userSpaceOnUse"
       id="clipPath316"><path
         d="M 18.1607,581.613 H 3825.16 v -1 H 18.1607 Z"
         id="path314"
         inkscape:connector-curvature="0" /></clipPath><clipPath
       clipPathUnits="userSpaceOnUse"
       id="clipPath332"><path
         d="M 18.1607,493.744 H 3825.16 v -1 H 18.1607 Z"
         id="path330"
         inkscape:connector-curvature="0" /></clipPath><clipPath
       clipPathUnits="userSpaceOnUse"
       id="clipPath348"><path
         d="M 18.1607,401.607 H 3825.16 v -1 H 18.1607 Z"
         id="path346"
         inkscape:connector-curvature="0" /></clipPath><clipPath
       clipPathUnits="userSpaceOnUse"
       id="clipPath364"><path
         d="M 18.1607,310.542 H 3825.16 v -1 H 18.1607 Z"
         id="path362"
         inkscape:connector-curvature="0" /></clipPath><clipPath
       clipPathUnits="userSpaceOnUse"
       id="clipPath380"><path
         d="M 18.1607,222.673 H 3825.16 v -1 H 18.1607 Z"
         id="path378"
         inkscape:connector-curvature="0" /></clipPath><clipPath
       clipPathUnits="userSpaceOnUse"
       id="clipPath396"><path
         d="M 18.1607,120.893 H 3825.16 v -1 H 18.1607 Z"
         id="path394"
         inkscape:connector-curvature="0" /></clipPath><clipPath
       clipPathUnits="userSpaceOnUse"
       id="clipPath412"><path
         d="M 0,2400 H 3839 V 0 H 0 Z"
         id="path410"
         inkscape:connector-curvature="0" /></clipPath><clipPath
       clipPathUnits="userSpaceOnUse"
       id="clipPath424"><path
         d="M 0,2400 H 3839 V 0 H 0 Z"
         id="path422"
         inkscape:connector-curvature="0" /></clipPath><clipPath
       clipPathUnits="userSpaceOnUse"
       id="clipPath432"><path
         d="M 865.916,546.526 H 1065.39 V 299.766 H 865.916 Z"
         id="path430"
         inkscape:connector-curvature="0" /></clipPath><clipPath
       clipPathUnits="userSpaceOnUse"
       id="clipPath448"><path
         d="M 283.593,557.966 H 499.394 V 328.732 H 283.593 Z"
         id="path446"
         inkscape:connector-curvature="0" /></clipPath><clipPath
       clipPathUnits="userSpaceOnUse"
       id="clipPath464"><path
         d="M 255.294,538.308 H 393.605 V 380.258 H 255.294 Z"
         id="path462"
         inkscape:connector-curvature="0" /></clipPath><clipPath
       clipPathUnits="userSpaceOnUse"
       id="clipPath484"><path
         d="m 3428.18,473.029 h 154.29 v -86.298 h -154.29 z"
         id="path482"
         inkscape:connector-curvature="0" /></clipPath><clipPath
       clipPathUnits="userSpaceOnUse"
       id="clipPath504"><path
         d="m 867.299,518.143 h 46.762 v -63.477 h -46.762 z"
         id="path502"
         inkscape:connector-curvature="0" /></clipPath><clipPath
       clipPathUnits="userSpaceOnUse"
       id="clipPath520"><path
         d="M 596.011,939.613 H 740.646 V 717.755 H 596.011 Z"
         id="path518"
         inkscape:connector-curvature="0" /></clipPath><clipPath
       clipPathUnits="userSpaceOnUse"
       id="clipPath540"><path
         d="M 618.364,777.552 H 794.123 V 714.49 H 618.364 Z"
         id="path538"
         inkscape:connector-curvature="0" /></clipPath><clipPath
       clipPathUnits="userSpaceOnUse"
       id="clipPath556"><path
         d="M 966.665,532.983 H 1067.99 V 363.068 H 966.665 Z"
         id="path554"
         inkscape:connector-curvature="0" /></clipPath><clipPath
       clipPathUnits="userSpaceOnUse"
       id="clipPath584"><path
         d="m 3380.26,574.468 h 193.57 V 343.711 h -193.57 z"
         id="path582"
         inkscape:connector-curvature="0" /></clipPath><clipPath
       clipPathUnits="userSpaceOnUse"
       id="clipPath600"><path
         d="m 3445.86,468.934 h 71.02 v -69.231 h -71.02 z"
         id="path598"
         inkscape:connector-curvature="0" /></clipPath><clipPath
       clipPathUnits="userSpaceOnUse"
       id="clipPath616"><path
         d="M 3518.19,469.808 Z"
         id="path614"
         inkscape:connector-curvature="0" /></clipPath><clipPath
       clipPathUnits="userSpaceOnUse"
       id="clipPath628"><path
         d="m 3362.06,511.256 h 69.02 V 391.528 h -69.02 z"
         id="path626"
         inkscape:connector-curvature="0" /></clipPath><clipPath
       clipPathUnits="userSpaceOnUse"
       id="clipPath644"><path
         d="m 3445.86,458.934 h 32.07 v -59.697 h -32.07 z"
         id="path642"
         inkscape:connector-curvature="0" /></clipPath><clipPath
       clipPathUnits="userSpaceOnUse"
       id="clipPath660"><path
         d="m 3354.06,512.925 h 53.14 v -78.053 h -53.14 z"
         id="path658"
         inkscape:connector-curvature="0" /></clipPath><clipPath
       clipPathUnits="userSpaceOnUse"
       id="clipPath676"><path
         d="m 1003.56,1297.57 h 184.37 v -242.31 h -184.37 z"
         id="path674"
         inkscape:connector-curvature="0" /></clipPath><clipPath
       clipPathUnits="userSpaceOnUse"
       id="clipPath700"><path
         d="M 2697.91,530.617 H 2886.6 V 328.085 h -188.69 z"
         id="path698"
         inkscape:connector-curvature="0" /></clipPath><clipPath
       clipPathUnits="userSpaceOnUse"
       id="clipPath808"><path
         d="m 2972.6,918.5 h 192.9 V 696.258 h -192.9 z"
         id="path806"
         inkscape:connector-curvature="0" /></clipPath><clipPath
       clipPathUnits="userSpaceOnUse"
       id="clipPath896"><path
         d="M 345.58,1386.89 H 554.244 V 1167.04 H 345.58 Z"
         id="path894"
         inkscape:connector-curvature="0" /></clipPath><clipPath
       clipPathUnits="userSpaceOnUse"
       id="clipPath948"><path
         d="m 2768.15,1101.15 h 81.32 v -20.39 h -81.32 z"
         id="path946"
         inkscape:connector-curvature="0" /></clipPath><clipPath
       clipPathUnits="userSpaceOnUse"
       id="clipPath964"><path
         d="m 2742.98,1231.17 h 106.51 V 1096.3 h -106.51 z"
         id="path962"
         inkscape:connector-curvature="0" /></clipPath><clipPath
       clipPathUnits="userSpaceOnUse"
       id="clipPath980"><path
         d="m 2727.6,1314.61 h 245.9 v -134.1 h -245.9 z"
         id="path978"
         inkscape:connector-curvature="0" /></clipPath><clipPath
       clipPathUnits="userSpaceOnUse"
       id="clipPath996"><path
         d="m 2771.84,1274.07 h 17.89 v -5 h -17.89 z"
         id="path994"
         inkscape:connector-curvature="0" /></clipPath><clipPath
       clipPathUnits="userSpaceOnUse"
       id="clipPath1012"><path
         d="m 2786.75,1247.83 h 17.89 v -5 h -17.89 z"
         id="path1010"
         inkscape:connector-curvature="0" /></clipPath><clipPath
       clipPathUnits="userSpaceOnUse"
       id="clipPath1028"><path
         d="m 2821.33,1247.83 h 17.89 v -5 h -17.89 z"
         id="path1026"
         inkscape:connector-curvature="0" /></clipPath><clipPath
       clipPathUnits="userSpaceOnUse"
       id="clipPath1044"><path
         d="m 2855.92,1247.83 h 17.89 v -5 h -17.89 z"
         id="path1042"
         inkscape:connector-curvature="0" /></clipPath><clipPath
       clipPathUnits="userSpaceOnUse"
       id="clipPath1060"><path
         d="m 2890.5,1247.83 h 17.89 v -5 h -17.89 z"
         id="path1058"
         inkscape:connector-curvature="0" /></clipPath><clipPath
       clipPathUnits="userSpaceOnUse"
       id="clipPath1076"><path
         d="m 2833.26,1221.59 h 17.89 v -5 h -17.89 z"
         id="path1074"
         inkscape:connector-curvature="0" /></clipPath><clipPath
       clipPathUnits="userSpaceOnUse"
       id="clipPath1092"><path
         d="m 2869.04,1221.59 h 17.89 v -5 h -17.89 z"
         id="path1090"
         inkscape:connector-curvature="0" /></clipPath><clipPath
       clipPathUnits="userSpaceOnUse"
       id="clipPath1108"><path
         d="m 2904.81,1221.59 h 17.89 v -5 h -17.89 z"
         id="path1106"
         inkscape:connector-curvature="0" /></clipPath><clipPath
       clipPathUnits="userSpaceOnUse"
       id="clipPath1124"><path
         d="m 2807.02,1274.07 h 17.89 v -5 h -17.89 z"
         id="path1122"
         inkscape:connector-curvature="0" /></clipPath><clipPath
       clipPathUnits="userSpaceOnUse"
       id="clipPath1140"><path
         d="m 2842.2,1274.07 h 17.89 v -5 h -17.89 z"
         id="path1138"
         inkscape:connector-curvature="0" /></clipPath><clipPath
       clipPathUnits="userSpaceOnUse"
       id="clipPath1156"><path
         d="m 2877.38,1274.07 h 17.89 v -5 h -17.89 z"
         id="path1154"
         inkscape:connector-curvature="0" /></clipPath><clipPath
       clipPathUnits="userSpaceOnUse"
       id="clipPath1172"><path
         d="m 2912.56,1274.07 h 17.89 v -5 h -17.89 z"
         id="path1170"
         inkscape:connector-curvature="0" /></clipPath><clipPath
       clipPathUnits="userSpaceOnUse"
       id="clipPath1188"><path
         d="m 2814.05,1185.51 h 133.57 v -5 h -133.57 z"
         id="path1186"
         inkscape:connector-curvature="0" /></clipPath><clipPath
       clipPathUnits="userSpaceOnUse"
       id="clipPath1204"><path
         d="m 3318.99,1332.06 h 226.97 v -216.9 h -226.97 z"
         id="path1202"
         inkscape:connector-curvature="0" /></clipPath><clipPath
       clipPathUnits="userSpaceOnUse"
       id="clipPath1260"><path
         d="M 1353.68,1507.01 H 2527.56 V 330 H 1353.68 Z"
         id="path1258"
         inkscape:connector-curvature="0" /></clipPath><clipPath
       clipPathUnits="userSpaceOnUse"
       id="clipPath1264"><path
         d="m 1738.16,813.222 h 414.98 V 631.467 h -414.98 z"
         id="path1262"
         inkscape:connector-curvature="0" /></clipPath><clipPath
       clipPathUnits="userSpaceOnUse"
       id="clipPath1584"><path
         d="m 1716.2,872.68 h 417.09 V 690 H 1716.2 Z"
         id="path1582"
         inkscape:connector-curvature="0" /></clipPath><clipPath
       clipPathUnits="userSpaceOnUse"
       id="clipPath1588"><path
         d="m 1952.986,871.695 c -1.01,-12.466 -13.35,-22.313 -28.42,-22.313 -15.47,0 -28.05,10.37 -28.48,23.298 l -16.74,-8.139 c 6.61,-16.026 24.36,-27.498 45.22,-27.498 20.58,0 38.13,11.161 44.95,26.85 z m 21.01,-9.915 c -3.75,-19.746 -25.34,-33.996 -49.43,-33.996 -24.05,0 -45.62,14.906 -49.41,34.729 l -31.47,-15.294 c 8.47,-18.365 41.47,-32.06 80.88,-32.06 39.24,0 72.13,13.576 80.77,31.824 z m 149.83,-70.718 -113.5,53.573 c -3.389,-21.454 -41.98,-38.735 -85.76,-38.735 -42.58,0 -81.12,17.802 -86.38,38.642 l -111.76,-54.306 c -3.32,-1.607 -7.3,-1.346 -10.23,0.396 0.29,-5.79 1.65,-13.071 5.61,-21.219 9.74,-20.023 29.83,-34.315 44.19,-42.605 6.08,-3.511 28.47,-15.951 66.53,-25.395 13.91,-3.442 46.73,-11.362 92.3,-11.413 47.41,-0.05 81.47,8.426 95.33,11.978 32.66,8.366 52.46,18.71 58.09,21.765 5.58,3.023 20.68,11.582 33.48,24.712 15.9,16.304 20.53,31.707 21.56,42.674 -2.82,-1.38 -6.41,-1.507 -9.46,-0.067"
         id="path1586"
         inkscape:connector-curvature="0" /></clipPath><radialGradient
       fx="0"
       fy="0"
       cx="0"
       cy="0"
       r="1"
       gradientUnits="userSpaceOnUse"
       gradientTransform="matrix(210.32976,0,0,-210.32976,1924.741,781.33997)"
       spreadMethod="pad"
       id="radialGradient1598"><stop
         style="stop-opacity:1;stop-color:#de8439"
         offset="0"
         id="stop1590" /><stop
         style="stop-opacity:1;stop-color:#bc5308"
         offset="0.74657196"
         id="stop1592" /><stop
         style="stop-opacity:1;stop-color:#bc5308"
         offset="0.842932"
         id="stop1594" /><stop
         style="stop-opacity:1;stop-color:#bc5308"
         offset="1"
         id="stop1596" /></radialGradient><clipPath
       clipPathUnits="userSpaceOnUse"
       id="clipPath1944"><path
         d="M 0,2400 H 3839 V 0 H 0 Z"
         id="path1942"
         inkscape:connector-curvature="0" /></clipPath><clipPath
       clipPathUnits="userSpaceOnUse"
       id="clipPath1952"><path
         d="M 429.546,2048.43 H 3471.65 V 1645.37 H 429.546 Z"
         id="path1950"
         inkscape:connector-curvature="0" /></clipPath><clipPath
       clipPathUnits="userSpaceOnUse"
       id="clipPath1972"><path
         d="M 0,2400 H 3839 V 0 H 0 Z"
         id="path1970"
         inkscape:connector-curvature="0" /></clipPath><clipPath
       clipPathUnits="userSpaceOnUse"
       id="clipPath1980"><path
         d="M 279.937,1121.5 H 367.5 v -484 h -87.563 z"
         id="path1978"
         inkscape:connector-curvature="0" /></clipPath><clipPath
       clipPathUnits="userSpaceOnUse"
       id="clipPath2004"><path
         d="m 501.5,380.5 h 318 v -46.565 h -318 z"
         id="path2002"
         inkscape:connector-curvature="0" /></clipPath><clipPath
       clipPathUnits="userSpaceOnUse"
       id="clipPath2028"><path
         d="m 1142.5,956.5 h 124.75 v -473 H 1142.5 Z"
         id="path2026"
         inkscape:connector-curvature="0" /></clipPath><clipPath
       clipPathUnits="userSpaceOnUse"
       id="clipPath2052"><path
         d="m 511.5,1151.5 h 149 v -169 h -149 z"
         id="path2050"
         inkscape:connector-curvature="0" /></clipPath><clipPath
       clipPathUnits="userSpaceOnUse"
       id="clipPath2076"><path
         d="M 1224.5,1303.01 H 1639 V 1193.5 h -414.5 z"
         id="path2074"
         inkscape:connector-curvature="0" /></clipPath><clipPath
       clipPathUnits="userSpaceOnUse"
       id="clipPath2100"><path
         d="m 2247,1299 h 503.74 V 604.5 H 2247 Z"
         id="path2098"
         inkscape:connector-curvature="0" /></clipPath><clipPath
       clipPathUnits="userSpaceOnUse"
       id="clipPath2124"><path
         d="m 2928.5,632.5 h 295.94 V 351.208 H 2928.5 Z"
         id="path2122"
         inkscape:connector-curvature="0" /></clipPath><clipPath
       clipPathUnits="userSpaceOnUse"
       id="clipPath2148"><path
         d="m 2995.5,1187.93 h 288 v -35.43 h -288 z"
         id="path2146"
         inkscape:connector-curvature="0" /></clipPath><clipPath
       clipPathUnits="userSpaceOnUse"
       id="clipPath2172"><path
         d="m 3468.5,1074.5 h 71.36 v -467 h -71.36 z"
         id="path2170"
         inkscape:connector-curvature="0" /></clipPath><clipPath
       clipPathUnits="userSpaceOnUse"
       id="clipPath2196"><path
         d="m 2424,783.331 h 508.5 V 739 H 2424 Z"
         id="path2194"
         inkscape:connector-curvature="0" /></clipPath><clipPath
       clipPathUnits="userSpaceOnUse"
       id="clipPath2220"><path
         d="m 810,822.452 h 669.5 V 482.358 H 810 Z"
         id="path2218"
         inkscape:connector-curvature="0" /></clipPath></defs><sodipodi:namedview
     pagecolor="#ffffff"
     bordercolor="#666666"
     borderopacity="1"
     objecttolerance="10"
     gridtolerance="10"
     guidetolerance="10"
     inkscape:pageopacity="0"
     inkscape:pageshadow="2"
     inkscape:window-width="1680"
     inkscape:window-height="978"
     id="namedview4"
     showgrid="false"
     inkscape:zoom="0.20113588"
     inkscape:cx="738.73026"
     inkscape:cy="719.69443"
     inkscape:window-x="0"
     inkscape:window-y="36"
     inkscape:window-maximized="1"
     inkscape:current-layer="g10"
     fit-margin-top="0"
     fit-margin-left="0"
     fit-margin-right="0"
     fit-margin-bottom="0" /><g
     id="g10"
     inkscape:groupmode="layer"
     inkscape:label="typewriter-5469733"
     transform="matrix(1.3333333,0,0,-1.3333333,-1760.8011,2426.6666)"><g
       id="g610"><g
         id="g612" /><g
         id="g620"><g
           clip-path="url(#clipPath616)"
           id="g618"
           style="opacity:0.80000299" /></g></g><g
       id="g4743"
       transform="translate(-9.1572131,250.00003)"><g
         id="g406"><g
           clip-path="url(#clipPath412)"
           id="g408"><g
             transform="translate(1690,659.833)"
             id="g414"><path
               inkscape:connector-curvature="0"
               id="path416"
               style="fill:#ffb569;fill-opacity:1;fill-rule:nonzero;stroke:none"
               d="M 0,0 C 0,-1.933 -1.567,-3.5 -3.5,-3.5 -5.433,-3.5 -7,-1.933 -7,0 -7,1.934 -5.433,3.5 -3.5,3.5 -1.567,3.5 0,1.934 0,0" /></g></g></g><g
         id="g1254"><g
           id="g1256" /><g
           id="g1540"><g
             style="opacity:0.32000703"
             id="g1538"
             clip-path="url(#clipPath1260)"><g
               id="g1268"
               transform="translate(1550.1035,844.6719)"><path
                 inkscape:connector-curvature="0"
                 id="path1266"
                 style="fill:#000000;fill-opacity:1;fill-rule:nonzero;stroke:none"
                 d="m 0,0 h -93.847 c -4.183,0 -7.574,3.391 -7.574,7.574 v 12.308 c 0,4.183 3.391,7.574 7.574,7.574 H 0 Z" /></g><g
               id="g1272"
               transform="translate(1550.1035,844.6719)"><path
                 inkscape:connector-curvature="0"
                 id="path1270"
                 style="fill:none;stroke:#001524;stroke-width:3.98000002;stroke-linecap:butt;stroke-linejoin:miter;stroke-miterlimit:10;stroke-dasharray:none;stroke-opacity:1"
                 d="m 0,0 h -93.847 c -4.183,0 -7.574,3.391 -7.574,7.574 v 12.308 c 0,4.183 3.391,7.574 7.574,7.574 H 0 Z" /></g><g
               id="g1276"
               transform="translate(2437.6621,844.6719)"><path
                 inkscape:connector-curvature="0"
                 id="path1274"
                 style="fill:#000000;fill-opacity:1;fill-rule:nonzero;stroke:none"
                 d="M 0,0 H -96.359 V 27.456 H 0 c 2.796,0 5.062,-2.267 5.062,-5.062 V 5.062 C 5.062,2.267 2.796,0 0,0" /></g><g
               id="g1280"
               transform="translate(2437.6621,844.6719)"><path
                 inkscape:connector-curvature="0"
                 id="path1278"
                 style="fill:none;stroke:#001524;stroke-width:3.98000002;stroke-linecap:butt;stroke-linejoin:miter;stroke-miterlimit:10;stroke-dasharray:none;stroke-opacity:1"
                 d="M 0,0 H -96.359 V 27.456 H 0 c 2.796,0 5.062,-2.267 5.062,-5.062 V 5.062 C 5.062,2.267 2.796,0 0,0 Z" /></g><g
               id="g1284"
               transform="translate(1533.854,985.3164)"><path
                 inkscape:connector-curvature="0"
                 id="path1282"
                 style="fill:#000000;fill-opacity:1;fill-rule:nonzero;stroke:none"
                 d="m 0,0 h -121.586 c -7.777,-35.861 -15.554,-71.724 -23.331,-107.585 h -26.896 c -2.125,35.861 -4.25,71.724 -6.375,107.585 V 33.061 H 0 Z" /></g><g
               id="g1288"
               transform="translate(1533.854,985.3164)"><path
                 inkscape:connector-curvature="0"
                 id="path1286"
                 style="fill:none;stroke:#001524;stroke-width:3.98000002;stroke-linecap:butt;stroke-linejoin:miter;stroke-miterlimit:10;stroke-dasharray:none;stroke-opacity:1"
                 d="m 0,0 h -121.586 c -7.777,-35.861 -15.554,-71.724 -23.331,-107.585 h -26.896 c -2.125,35.861 -4.25,71.724 -6.375,107.585 V 33.061 H 0 Z" /></g><g
               id="g1292"
               transform="translate(2517.3643,987.5576)"><path
                 inkscape:connector-curvature="0"
                 id="path1290"
                 style="fill:#000000;fill-opacity:1;fill-rule:nonzero;stroke:none"
                 d="M 0,0 H -176.062 V 33.621 H 0 c 4.529,0 8.202,-3.673 8.202,-8.202 V 8.202 C 8.202,3.673 4.529,0 0,0" /></g><g
               id="g1296"
               transform="translate(2517.3643,987.5576)"><path
                 inkscape:connector-curvature="0"
                 id="path1294"
                 style="fill:none;stroke:#001524;stroke-width:3.98000002;stroke-linecap:butt;stroke-linejoin:miter;stroke-miterlimit:10;stroke-dasharray:none;stroke-opacity:1"
                 d="M 0,0 H -176.062 V 33.621 H 0 c 4.529,0 8.202,-3.673 8.202,-8.202 V 8.202 C 8.202,3.673 4.529,0 0,0 Z" /></g><g
               id="g1300"
               transform="translate(2144.8457,330)"><path
                 inkscape:connector-curvature="0"
                 id="path1298"
                 style="fill:#000000;fill-opacity:1;fill-rule:nonzero;stroke:none"
                 d="m 0,0 h -398.285 c -129.853,0 -235.12,105.268 -235.12,235.121 v 494.112 c 0,28.034 22.725,50.759 50.759,50.759 h 767.007 c 28.034,0 50.759,-22.725 50.759,-50.759 V 235.121 C 235.12,105.268 129.854,0 0,0" /></g><g
               id="g1312"><g
                 id="g1302" /><g
                 id="g1310"><g
                   style="opacity:0.60000598"
                   id="g1308"
                   clip-path="url(#clipPath1264)"><g
                     id="g1306"
                     transform="translate(1973.75,812.2422)"><path
                       inkscape:connector-curvature="0"
                       id="path1304"
                       style="fill:#000000;fill-opacity:1;fill-rule:nonzero;stroke:none"
                       d="m 0,0 c -1.005,-12.402 -13.282,-22.2 -28.275,-22.2 -15.392,0 -27.909,10.317 -28.336,23.18 l -16.656,-8.098 c 6.577,-15.944 24.237,-27.359 44.992,-27.359 20.475,0 37.936,11.105 44.722,26.714 z m 20.904,-9.864 c -3.731,-19.647 -25.212,-33.824 -49.179,-33.824 -23.929,0 -45.39,14.831 -49.161,34.552 l -31.311,-15.217 c 8.428,-18.272 41.261,-31.897 80.472,-31.897 39.041,0 71.764,13.508 80.361,31.663 z M 169.976,-80.226 57.051,-26.923 c -3.373,-21.346 -41.768,-38.538 -85.326,-38.538 -42.365,0 -80.71,17.711 -85.944,38.446 l -111.194,-54.031 c -3.303,-1.6 -7.263,-1.34 -10.178,0.394 0.288,-5.762 1.641,-13.005 5.581,-21.112 9.691,-19.923 29.679,-34.142 43.967,-42.39 6.049,-3.492 28.326,-15.869 66.193,-25.266 13.84,-3.425 46.494,-11.305 91.833,-11.355 47.17,-0.05 81.058,8.382 94.848,11.917 32.494,8.324 52.194,18.616 57.796,21.655 5.552,3.007 20.575,11.523 33.31,24.587 15.82,16.221 20.426,31.546 21.451,42.458 -2.806,-1.373 -6.377,-1.499 -9.412,-0.068" /></g></g></g></g><g
               id="g1316"
               transform="translate(1990.1973,802.835)"><path
                 inkscape:connector-curvature="0"
                 id="path1314"
                 style="fill:#000000;fill-opacity:1;fill-rule:nonzero;stroke:none"
                 d="m 0,0 c -6.786,-18.546 -24.247,-31.738 -44.723,-31.738 -20.755,0 -38.415,13.56 -44.991,32.505 l 16.655,9.621 c 0.428,-15.283 12.945,-27.54 28.336,-27.54 14.994,0 27.271,11.64 28.276,26.376 z" /></g><g
               id="g1320"
               transform="translate(2025.8359,782.8467)"><path
                 inkscape:connector-curvature="0"
                 id="path1318"
                 style="fill:#000000;fill-opacity:1;fill-rule:nonzero;stroke:none"
                 d="m 0,0 c -8.597,-21.57 -41.32,-37.618 -80.361,-37.618 -39.211,0 -72.044,16.187 -80.472,37.896 l 31.312,18.078 c 3.77,-23.43 25.231,-41.05 49.16,-41.05 23.967,0 45.448,16.843 49.179,40.185 z" /></g><path
               inkscape:connector-curvature="0"
               id="path1322"
               style="fill:#000000;fill-opacity:1;fill-rule:nonzero;stroke:none"
               d="m 2307.122,878.212 h -722.838 v 62.681 h 722.838 z" /><path
               inkscape:connector-curvature="0"
               id="path1324"
               style="fill:#000000;fill-opacity:1;fill-rule:nonzero;stroke:none"
               d="m 2356.992,940.91 h -822.578 v 127.196 h 822.578 z" /><path
               inkscape:connector-curvature="0"
               id="path1326"
               style="fill:#000000;fill-opacity:1;fill-rule:nonzero;stroke:none"
               d="m 2307.122,856.158 h -722.838 v 21.573 h 722.838 z" /><g
               id="g1330"
               transform="translate(2209.3467,391.2832)"><path
                 inkscape:connector-curvature="0"
                 id="path1328"
                 style="fill:#000000;fill-opacity:1;fill-rule:nonzero;stroke:none"
                 d="m 0,0 h -527.287 c -34.116,0 -61.772,27.655 -61.772,61.771 v 96.491 c 0,15.022 12.178,27.2 27.201,27.2 H 34.571 c 15.023,0 27.2,-12.178 27.2,-27.2 V 61.771 C 61.771,27.655 34.115,0 0,0" /></g><g
               id="g1334"
               transform="translate(1664.8687,534.9062)"><path
                 inkscape:connector-curvature="0"
                 id="path1332"
                 style="fill:#000000;fill-opacity:1;fill-rule:nonzero;stroke:none"
                 d="m 0,0 h -2.058 c -7.674,0 -13.896,6.222 -13.896,13.896 v 2.057 c 0,7.675 6.222,13.897 13.896,13.897 H 0 c 7.675,0 13.896,-6.222 13.896,-13.897 V 13.896 C 13.896,6.222 7.675,0 0,0" /></g><g
               id="g1338"
               transform="translate(1707.9312,534.9062)"><path
                 inkscape:connector-curvature="0"
                 id="path1336"
                 style="fill:#000000;fill-opacity:1;fill-rule:nonzero;stroke:none"
                 d="m 0,0 h -2.058 c -7.674,0 -13.896,6.222 -13.896,13.896 v 2.057 c 0,7.675 6.222,13.897 13.896,13.897 H 0 c 7.674,0 13.896,-6.222 13.896,-13.897 V 13.896 C 13.896,6.222 7.674,0 0,0" /></g><g
               id="g1342"
               transform="translate(1751.4829,534.9062)"><path
                 inkscape:connector-curvature="0"
                 id="path1340"
                 style="fill:#000000;fill-opacity:1;fill-rule:nonzero;stroke:none"
                 d="m 0,0 h -2.058 c -7.674,0 -13.896,6.222 -13.896,13.896 v 2.057 c 0,7.675 6.222,13.897 13.896,13.897 H 0 c 7.675,0 13.896,-6.222 13.896,-13.897 V 13.896 C 13.896,6.222 7.675,0 0,0" /></g><g
               id="g1346"
               transform="translate(1794.0557,534.9062)"><path
                 inkscape:connector-curvature="0"
                 id="path1344"
                 style="fill:#000000;fill-opacity:1;fill-rule:nonzero;stroke:none"
                 d="m 0,0 h -2.057 c -7.675,0 -13.897,6.222 -13.897,13.896 v 2.057 c 0,7.675 6.222,13.897 13.897,13.897 H 0 c 7.675,0 13.896,-6.222 13.896,-13.897 V 13.896 C 13.896,6.222 7.675,0 0,0" /></g><g
               id="g1350"
               transform="translate(1838.5864,534.9062)"><path
                 inkscape:connector-curvature="0"
                 id="path1348"
                 style="fill:#000000;fill-opacity:1;fill-rule:nonzero;stroke:none"
                 d="m 0,0 h -2.058 c -7.674,0 -13.896,6.222 -13.896,13.896 v 2.057 c 0,7.675 6.222,13.897 13.896,13.897 H 0 c 7.675,0 13.896,-6.222 13.896,-13.897 V 13.896 C 13.896,6.222 7.675,0 0,0" /></g><g
               id="g1354"
               transform="translate(1880.1807,534.9062)"><path
                 inkscape:connector-curvature="0"
                 id="path1352"
                 style="fill:#000000;fill-opacity:1;fill-rule:nonzero;stroke:none"
                 d="m 0,0 h -2.057 c -7.675,0 -13.897,6.222 -13.897,13.896 v 2.057 c 0,7.675 6.222,13.897 13.897,13.897 H 0 c 7.675,0 13.896,-6.222 13.896,-13.897 V 13.896 C 13.896,6.222 7.675,0 0,0" /></g><g
               id="g1358"
               transform="translate(1923.2432,534.9062)"><path
                 inkscape:connector-curvature="0"
                 id="path1356"
                 style="fill:#000000;fill-opacity:1;fill-rule:nonzero;stroke:none"
                 d="m 0,0 h -2.058 c -7.674,0 -13.896,6.222 -13.896,13.896 v 2.057 c 0,7.675 6.222,13.897 13.896,13.897 H 0 c 7.675,0 13.896,-6.222 13.896,-13.897 V 13.896 C 13.896,6.222 7.675,0 0,0" /></g><g
               id="g1362"
               transform="translate(1966.7949,534.9062)"><path
                 inkscape:connector-curvature="0"
                 id="path1360"
                 style="fill:#000000;fill-opacity:1;fill-rule:nonzero;stroke:none"
                 d="m 0,0 h -2.058 c -7.674,0 -13.896,6.222 -13.896,13.896 v 2.057 c 0,7.675 6.222,13.897 13.896,13.897 H 0 c 7.675,0 13.896,-6.222 13.896,-13.897 V 13.896 C 13.896,6.222 7.675,0 0,0" /></g><g
               id="g1366"
               transform="translate(2009.3682,534.9062)"><path
                 inkscape:connector-curvature="0"
                 id="path1364"
                 style="fill:#000000;fill-opacity:1;fill-rule:nonzero;stroke:none"
                 d="m 0,0 h -2.058 c -7.674,0 -13.896,6.222 -13.896,13.896 v 2.057 c 0,7.675 6.222,13.897 13.896,13.897 H 0 c 7.675,0 13.896,-6.222 13.896,-13.897 V 13.896 C 13.896,6.222 7.675,0 0,0" /></g><g
               id="g1370"
               transform="translate(2053.8984,534.9062)"><path
                 inkscape:connector-curvature="0"
                 id="path1368"
                 style="fill:#000000;fill-opacity:1;fill-rule:nonzero;stroke:none"
                 d="m 0,0 h -2.058 c -7.673,0 -13.895,6.222 -13.895,13.896 v 2.057 c 0,7.675 6.222,13.897 13.895,13.897 H 0 c 7.675,0 13.896,-6.222 13.896,-13.897 V 13.896 C 13.896,6.222 7.675,0 0,0" /></g><g
               id="g1374"
               transform="translate(1688.4697,492.8223)"><path
                 inkscape:connector-curvature="0"
                 id="path1372"
                 style="fill:#000000;fill-opacity:1;fill-rule:nonzero;stroke:none"
                 d="m 0,0 h -4.617 c -7.675,0 -13.896,6.222 -13.896,13.896 v 2.058 c 0,7.674 6.221,13.896 13.896,13.896 H 0 c 7.675,0 13.896,-6.222 13.896,-13.896 V 13.896 C 13.896,6.222 7.675,0 0,0" /></g><g
               id="g1378"
               transform="translate(1735.7559,492.8223)"><path
                 inkscape:connector-curvature="0"
                 id="path1376"
                 style="fill:#000000;fill-opacity:1;fill-rule:nonzero;stroke:none"
                 d="m 0,0 h -4.617 c -7.675,0 -13.896,6.222 -13.896,13.896 v 2.058 c 0,7.674 6.221,13.896 13.896,13.896 H 0 c 7.675,0 13.896,-6.222 13.896,-13.896 V 13.896 C 13.896,6.222 7.675,0 0,0" /></g><g
               id="g1382"
               transform="translate(1781.979,492.8223)"><path
                 inkscape:connector-curvature="0"
                 id="path1380"
                 style="fill:#000000;fill-opacity:1;fill-rule:nonzero;stroke:none"
                 d="m 0,0 h -4.617 c -7.675,0 -13.896,6.222 -13.896,13.896 v 2.058 c 0,7.674 6.221,13.896 13.896,13.896 H 0 c 7.675,0 13.896,-6.222 13.896,-13.896 V 13.896 C 13.896,6.222 7.675,0 0,0" /></g><g
               id="g1386"
               transform="translate(1830.3276,492.8223)"><path
                 inkscape:connector-curvature="0"
                 id="path1384"
                 style="fill:#000000;fill-opacity:1;fill-rule:nonzero;stroke:none"
                 d="m 0,0 h -4.617 c -7.675,0 -13.896,6.222 -13.896,13.896 v 2.058 c 0,7.674 6.221,13.896 13.896,13.896 H 0 c 7.675,0 13.896,-6.222 13.896,-13.896 V 13.896 C 13.896,6.222 7.675,0 0,0" /></g><g
               id="g1390"
               transform="translate(1875.4888,492.8223)"><path
                 inkscape:connector-curvature="0"
                 id="path1388"
                 style="fill:#000000;fill-opacity:1;fill-rule:nonzero;stroke:none"
                 d="m 0,0 h -4.617 c -7.675,0 -13.896,6.222 -13.896,13.896 v 2.058 c 0,7.674 6.221,13.896 13.896,13.896 H 0 c 7.675,0 13.896,-6.222 13.896,-13.896 V 13.896 C 13.896,6.222 7.675,0 0,0" /></g><g
               id="g1394"
               transform="translate(1922.2432,492.8223)"><path
                 inkscape:connector-curvature="0"
                 id="path1392"
                 style="fill:#000000;fill-opacity:1;fill-rule:nonzero;stroke:none"
                 d="m 0,0 h -4.617 c -7.675,0 -13.896,6.222 -13.896,13.896 v 2.058 c 0,7.674 6.221,13.896 13.896,13.896 H 0 c 7.675,0 13.896,-6.222 13.896,-13.896 V 13.896 C 13.896,6.222 7.675,0 0,0" /></g><g
               id="g1398"
               transform="translate(1969.5293,492.8223)"><path
                 inkscape:connector-curvature="0"
                 id="path1396"
                 style="fill:#000000;fill-opacity:1;fill-rule:nonzero;stroke:none"
                 d="m 0,0 h -4.617 c -7.674,0 -13.896,6.222 -13.896,13.896 v 2.058 c 0,7.674 6.222,13.896 13.896,13.896 H 0 c 7.675,0 13.896,-6.222 13.896,-13.896 V 13.896 C 13.896,6.222 7.675,0 0,0" /></g><g
               id="g1402"
               transform="translate(2015.7529,492.8223)"><path
                 inkscape:connector-curvature="0"
                 id="path1400"
                 style="fill:#000000;fill-opacity:1;fill-rule:nonzero;stroke:none"
                 d="m 0,0 h -4.617 c -7.675,0 -13.897,6.222 -13.897,13.896 v 2.058 c 0,7.674 6.222,13.896 13.897,13.896 H 0 c 7.675,0 13.896,-6.222 13.896,-13.896 V 13.896 C 13.896,6.222 7.675,0 0,0" /></g><g
               id="g1406"
               transform="translate(2064.1016,492.8223)"><path
                 inkscape:connector-curvature="0"
                 id="path1404"
                 style="fill:#000000;fill-opacity:1;fill-rule:nonzero;stroke:none"
                 d="m 0,0 h -4.617 c -7.675,0 -13.897,6.222 -13.897,13.896 v 2.058 c 0,7.674 6.222,13.896 13.897,13.896 H 0 c 7.675,0 13.896,-6.222 13.896,-13.896 V 13.896 C 13.896,6.222 7.675,0 0,0" /></g><g
               id="g1410"
               transform="translate(1707.9312,450.7383)"><path
                 inkscape:connector-curvature="0"
                 id="path1408"
                 style="fill:#000000;fill-opacity:1;fill-rule:nonzero;stroke:none"
                 d="m 0,0 h -2.058 c -7.674,0 -13.896,6.222 -13.896,13.896 v 2.058 c 0,7.675 6.222,13.897 13.896,13.897 H 0 c 7.674,0 13.896,-6.222 13.896,-13.897 V 13.896 C 13.896,6.222 7.674,0 0,0" /></g><g
               id="g1414"
               transform="translate(1751.4829,450.7383)"><path
                 inkscape:connector-curvature="0"
                 id="path1412"
                 style="fill:#000000;fill-opacity:1;fill-rule:nonzero;stroke:none"
                 d="m 0,0 h -2.058 c -7.674,0 -13.896,6.222 -13.896,13.896 v 2.058 c 0,7.675 6.222,13.897 13.896,13.897 H 0 c 7.675,0 13.896,-6.222 13.896,-13.897 V 13.896 C 13.896,6.222 7.675,0 0,0" /></g><g
               id="g1418"
               transform="translate(1794.0557,450.7383)"><path
                 inkscape:connector-curvature="0"
                 id="path1416"
                 style="fill:#000000;fill-opacity:1;fill-rule:nonzero;stroke:none"
                 d="m 0,0 h -2.057 c -7.675,0 -13.897,6.222 -13.897,13.896 v 2.058 c 0,7.675 6.222,13.897 13.897,13.897 H 0 c 7.675,0 13.896,-6.222 13.896,-13.897 V 13.896 C 13.896,6.222 7.675,0 0,0" /></g><g
               id="g1422"
               transform="translate(1838.5864,450.7383)"><path
                 inkscape:connector-curvature="0"
                 id="path1420"
                 style="fill:#000000;fill-opacity:1;fill-rule:nonzero;stroke:none"
                 d="m 0,0 h -2.058 c -7.674,0 -13.896,6.222 -13.896,13.896 v 2.058 c 0,7.675 6.222,13.897 13.896,13.897 H 0 c 7.675,0 13.896,-6.222 13.896,-13.897 V 13.896 C 13.896,6.222 7.675,0 0,0" /></g><g
               id="g1426"
               transform="translate(1880.1807,450.7383)"><path
                 inkscape:connector-curvature="0"
                 id="path1424"
                 style="fill:#000000;fill-opacity:1;fill-rule:nonzero;stroke:none"
                 d="m 0,0 h -2.057 c -7.675,0 -13.897,6.222 -13.897,13.896 v 2.058 c 0,7.675 6.222,13.897 13.897,13.897 H 0 c 7.675,0 13.896,-6.222 13.896,-13.897 V 13.896 C 13.896,6.222 7.675,0 0,0" /></g><g
               id="g1430"
               transform="translate(1923.2432,450.7383)"><path
                 inkscape:connector-curvature="0"
                 id="path1428"
                 style="fill:#000000;fill-opacity:1;fill-rule:nonzero;stroke:none"
                 d="m 0,0 h -2.058 c -7.674,0 -13.896,6.222 -13.896,13.896 v 2.058 c 0,7.675 6.222,13.897 13.896,13.897 H 0 c 7.675,0 13.896,-6.222 13.896,-13.897 V 13.896 C 13.896,6.222 7.675,0 0,0" /></g><g
               id="g1434"
               transform="translate(1966.7949,450.7383)"><path
                 inkscape:connector-curvature="0"
                 id="path1432"
                 style="fill:#000000;fill-opacity:1;fill-rule:nonzero;stroke:none"
                 d="m 0,0 h -2.058 c -7.674,0 -13.896,6.222 -13.896,13.896 v 2.058 c 0,7.675 6.222,13.897 13.896,13.897 H 0 c 7.675,0 13.896,-6.222 13.896,-13.897 V 13.896 C 13.896,6.222 7.675,0 0,0" /></g><g
               id="g1438"
               transform="translate(2009.3682,450.7383)"><path
                 inkscape:connector-curvature="0"
                 id="path1436"
                 style="fill:#000000;fill-opacity:1;fill-rule:nonzero;stroke:none"
                 d="m 0,0 h -2.058 c -7.674,0 -13.896,6.222 -13.896,13.896 v 2.058 c 0,7.675 6.222,13.897 13.896,13.897 H 0 c 7.675,0 13.896,-6.222 13.896,-13.897 V 13.896 C 13.896,6.222 7.675,0 0,0" /></g><g
               id="g1442"
               transform="translate(2053.8984,450.7383)"><path
                 inkscape:connector-curvature="0"
                 id="path1440"
                 style="fill:#000000;fill-opacity:1;fill-rule:nonzero;stroke:none"
                 d="m 0,0 h -2.058 c -7.673,0 -13.895,6.222 -13.895,13.896 v 2.058 c 0,7.675 6.222,13.897 13.895,13.897 H 0 c 7.675,0 13.896,-6.222 13.896,-13.897 V 13.896 C 13.896,6.222 7.675,0 0,0" /></g><g
               id="g1446"
               transform="translate(1714.708,408.6543)"><path
                 inkscape:connector-curvature="0"
                 id="path1444"
                 style="fill:#000000;fill-opacity:1;fill-rule:nonzero;stroke:none"
                 d="m 0,0 h -2.058 c -7.674,0 -13.896,6.222 -13.896,13.896 v 2.058 c 0,7.675 6.222,13.897 13.896,13.897 H 0 c 7.675,0 13.896,-6.222 13.896,-13.897 V 13.896 C 13.896,6.222 7.675,0 0,0" /></g><g
               id="g1450"
               transform="translate(1758.2598,408.6543)"><path
                 inkscape:connector-curvature="0"
                 id="path1448"
                 style="fill:#000000;fill-opacity:1;fill-rule:nonzero;stroke:none"
                 d="m 0,0 h -2.058 c -7.674,0 -13.896,6.222 -13.896,13.896 v 2.058 c 0,7.675 6.222,13.897 13.896,13.897 H 0 c 7.675,0 13.896,-6.222 13.896,-13.897 V 13.896 C 13.896,6.222 7.675,0 0,0" /></g><g
               id="g1454"
               transform="translate(1800.833,408.6543)"><path
                 inkscape:connector-curvature="0"
                 id="path1452"
                 style="fill:#000000;fill-opacity:1;fill-rule:nonzero;stroke:none"
                 d="m 0,0 h -2.058 c -7.674,0 -13.896,6.222 -13.896,13.896 v 2.058 c 0,7.675 6.222,13.897 13.896,13.897 H 0 c 7.675,0 13.896,-6.222 13.896,-13.897 V 13.896 C 13.896,6.222 7.675,0 0,0" /></g><g
               id="g1458"
               transform="translate(2009.3682,408.6543)"><path
                 inkscape:connector-curvature="0"
                 id="path1456"
                 style="fill:#000000;fill-opacity:1;fill-rule:nonzero;stroke:none"
                 d="m 0,0 h -172.839 c -7.675,0 -13.896,6.222 -13.896,13.896 v 2.058 c 0,7.675 6.221,13.897 13.896,13.897 H 0 c 7.675,0 13.896,-6.222 13.896,-13.897 V 13.896 C 13.896,6.222 7.675,0 0,0" /></g><g
               id="g1462"
               transform="translate(2046.1426,408.6543)"><path
                 inkscape:connector-curvature="0"
                 id="path1460"
                 style="fill:#000000;fill-opacity:1;fill-rule:nonzero;stroke:none"
                 d="m 0,0 h -2.057 c -7.674,0 -13.896,6.222 -13.896,13.896 v 2.058 c 0,7.675 6.222,13.897 13.896,13.897 H 0 c 7.675,0 13.896,-6.222 13.896,-13.897 V 13.896 C 13.896,6.222 7.675,0 0,0" /></g><g
               id="g1466"
               transform="translate(2099.4082,534.9062)"><path
                 inkscape:connector-curvature="0"
                 id="path1464"
                 style="fill:#000000;fill-opacity:1;fill-rule:nonzero;stroke:none"
                 d="m 0,0 h -2.058 c -7.674,0 -13.896,6.222 -13.896,13.896 v 2.057 c 0,7.675 6.222,13.897 13.896,13.897 H 0 c 7.675,0 13.896,-6.222 13.896,-13.897 V 13.896 C 13.896,6.222 7.675,0 0,0" /></g><g
               id="g1470"
               transform="translate(2142.4707,534.9062)"><path
                 inkscape:connector-curvature="0"
                 id="path1468"
                 style="fill:#000000;fill-opacity:1;fill-rule:nonzero;stroke:none"
                 d="m 0,0 h -2.058 c -7.674,0 -13.896,6.222 -13.896,13.896 v 2.057 c 0,7.675 6.222,13.897 13.896,13.897 H 0 c 7.675,0 13.896,-6.222 13.896,-13.897 V 13.896 C 13.896,6.222 7.675,0 0,0" /></g><g
               id="g1474"
               transform="translate(2186.0225,534.9062)"><path
                 inkscape:connector-curvature="0"
                 id="path1472"
                 style="fill:#000000;fill-opacity:1;fill-rule:nonzero;stroke:none"
                 d="m 0,0 h -2.058 c -7.674,0 -13.896,6.222 -13.896,13.896 v 2.057 c 0,7.675 6.222,13.897 13.896,13.897 H 0 c 7.675,0 13.896,-6.222 13.896,-13.897 V 13.896 C 13.896,6.222 7.675,0 0,0" /></g><g
               id="g1478"
               transform="translate(2228.5947,534.9062)"><path
                 inkscape:connector-curvature="0"
                 id="path1476"
                 style="fill:#000000;fill-opacity:1;fill-rule:nonzero;stroke:none"
                 d="m 0,0 h -2.057 c -7.674,0 -13.896,6.222 -13.896,13.896 v 2.057 c 0,7.675 6.222,13.897 13.896,13.897 H 0 c 7.675,0 13.896,-6.222 13.896,-13.897 V 13.896 C 13.896,6.222 7.675,0 0,0" /></g><g
               id="g1482"
               transform="translate(2113.5127,492.8223)"><path
                 inkscape:connector-curvature="0"
                 id="path1480"
                 style="fill:#000000;fill-opacity:1;fill-rule:nonzero;stroke:none"
                 d="m 0,0 h -4.617 c -7.675,0 -13.897,6.222 -13.897,13.896 v 2.058 c 0,7.674 6.222,13.896 13.897,13.896 H 0 c 7.675,0 13.896,-6.222 13.896,-13.896 V 13.896 C 13.896,6.222 7.675,0 0,0" /></g><g
               id="g1486"
               transform="translate(2160.2676,492.8223)"><path
                 inkscape:connector-curvature="0"
                 id="path1484"
                 style="fill:#000000;fill-opacity:1;fill-rule:nonzero;stroke:none"
                 d="m 0,0 h -4.617 c -7.675,0 -13.897,6.222 -13.897,13.896 v 2.058 c 0,7.674 6.222,13.896 13.897,13.896 H 0 c 7.675,0 13.896,-6.222 13.896,-13.896 V 13.896 C 13.896,6.222 7.675,0 0,0" /></g><g
               id="g1490"
               transform="translate(2207.5537,492.8223)"><path
                 inkscape:connector-curvature="0"
                 id="path1488"
                 style="fill:#000000;fill-opacity:1;fill-rule:nonzero;stroke:none"
                 d="m 0,0 h -4.617 c -7.675,0 -13.897,6.222 -13.897,13.896 v 2.058 c 0,7.674 6.222,13.896 13.897,13.896 H 0 c 7.675,0 13.896,-6.222 13.896,-13.896 V 13.896 C 13.896,6.222 7.675,0 0,0" /></g><g
               id="g1494"
               transform="translate(2099.4082,450.7383)"><path
                 inkscape:connector-curvature="0"
                 id="path1492"
                 style="fill:#000000;fill-opacity:1;fill-rule:nonzero;stroke:none"
                 d="m 0,0 h -2.058 c -7.674,0 -13.896,6.222 -13.896,13.896 v 2.058 c 0,7.675 6.222,13.897 13.896,13.897 H 0 c 7.675,0 13.896,-6.222 13.896,-13.897 V 13.896 C 13.896,6.222 7.675,0 0,0" /></g><g
               id="g1498"
               transform="translate(2142.4707,450.7383)"><path
                 inkscape:connector-curvature="0"
                 id="path1496"
                 style="fill:#000000;fill-opacity:1;fill-rule:nonzero;stroke:none"
                 d="m 0,0 h -2.058 c -7.674,0 -13.896,6.222 -13.896,13.896 v 2.058 c 0,7.675 6.222,13.897 13.896,13.897 H 0 c 7.675,0 13.896,-6.222 13.896,-13.897 V 13.896 C 13.896,6.222 7.675,0 0,0" /></g><g
               id="g1502"
               transform="translate(2186.0225,450.7383)"><path
                 inkscape:connector-curvature="0"
                 id="path1500"
                 style="fill:#000000;fill-opacity:1;fill-rule:nonzero;stroke:none"
                 d="m 0,0 h -2.058 c -7.674,0 -13.896,6.222 -13.896,13.896 v 2.058 c 0,7.675 6.222,13.897 13.896,13.897 H 0 c 7.675,0 13.896,-6.222 13.896,-13.897 V 13.896 C 13.896,6.222 7.675,0 0,0" /></g><g
               id="g1506"
               transform="translate(2091.6523,408.6543)"><path
                 inkscape:connector-curvature="0"
                 id="path1504"
                 style="fill:#000000;fill-opacity:1;fill-rule:nonzero;stroke:none"
                 d="m 0,0 h -2.058 c -7.674,0 -13.896,6.222 -13.896,13.896 v 2.058 c 0,7.675 6.222,13.897 13.896,13.897 H 0 c 7.675,0 13.896,-6.222 13.896,-13.897 V 13.896 C 13.896,6.222 7.675,0 0,0" /></g><g
               id="g1510"
               transform="translate(2134.7148,408.6543)"><path
                 inkscape:connector-curvature="0"
                 id="path1508"
                 style="fill:#000000;fill-opacity:1;fill-rule:nonzero;stroke:none"
                 d="m 0,0 h -2.058 c -7.674,0 -13.896,6.222 -13.896,13.896 v 2.058 c 0,7.675 6.222,13.897 13.896,13.897 H 0 c 7.675,0 13.896,-6.222 13.896,-13.897 V 13.896 C 13.896,6.222 7.675,0 0,0" /></g><g
               id="g1514"
               transform="translate(2178.2666,408.6543)"><path
                 inkscape:connector-curvature="0"
                 id="path1512"
                 style="fill:#000000;fill-opacity:1;fill-rule:nonzero;stroke:none"
                 d="m 0,0 h -2.058 c -7.674,0 -13.896,6.222 -13.896,13.896 v 2.058 c 0,7.675 6.222,13.897 13.896,13.897 H 0 c 7.675,0 13.896,-6.222 13.896,-13.897 V 13.896 C 13.896,6.222 7.675,0 0,0" /></g><path
               inkscape:connector-curvature="0"
               id="path1516"
               style="fill:#000000;fill-opacity:1;fill-rule:nonzero;stroke:none"
               d="M 2203.072,879.732 H 1688.38 v 627.281 h 514.692 z" /><g
               id="g1520"
               transform="translate(1760.981,589.0156)"><path
                 inkscape:connector-curvature="0"
                 id="path1518"
                 style="fill:#000000;fill-opacity:1;fill-rule:nonzero;stroke:none"
                 d="m 0,0 h -107.589 c -6.831,0 -12.369,5.538 -12.369,12.369 v 0.136 c 0,6.831 5.538,12.369 12.369,12.369 H 0 c 6.831,0 12.369,-5.538 12.369,-12.369 V 12.369 C 12.369,5.538 6.831,0 0,0" /></g><g
               id="g1524"
               transform="translate(1763.4004,601.4531)"><path
                 inkscape:connector-curvature="0"
                 id="path1522"
                 style="fill:#000000;fill-opacity:1;fill-rule:nonzero;stroke:none"
                 d="m 0,0 c 0,-1.924 -1.559,-3.482 -3.482,-3.482 -1.924,0 -3.483,1.558 -3.483,3.482 0,1.923 1.559,3.481 3.483,3.481 C -1.559,3.481 0,1.923 0,0" /></g><g
               id="g1528"
               transform="translate(1660.9214,601.4531)"><path
                 inkscape:connector-curvature="0"
                 id="path1526"
                 style="fill:#000000;fill-opacity:1;fill-rule:nonzero;stroke:none"
                 d="m 0,0 c 0,-1.924 -1.559,-3.482 -3.482,-3.482 -1.923,0 -3.482,1.558 -3.482,3.482 0,1.923 1.559,3.481 3.482,3.481 C -1.559,3.481 0,1.923 0,0" /></g><g
               id="g1532"
               transform="translate(1945.4746,745.2285)"><path
                 inkscape:connector-curvature="0"
                 id="path1530"
                 style="fill:#000000;fill-opacity:1;fill-rule:nonzero;stroke:none"
                 d="m 0,0 c -39.211,0 -72.044,16.187 -80.471,37.896 l 27.739,16.487 C -48.961,30.952 -23.929,14.924 0,14.924 c 23.968,0 48.006,15.123 51.736,38.464 L 80.361,37.618 C 71.765,16.048 39.041,0 0,0 m -28.336,67.994 c -0.02,0.269 -0.02,0.547 -0.02,0.816 0,1.522 0.119,3.024 0.358,4.477 0.527,3.383 1.662,6.567 3.293,9.442 0.329,0.597 0.686,1.184 1.075,1.75 0.388,0.598 0.816,1.185 1.264,1.752 4.267,5.482 10.516,9.352 17.679,10.537 0,0 0,0.009 0.01,0.009 1.523,0.259 3.085,0.388 4.677,0.388 1.86,0 3.671,-0.179 5.432,-0.527 6.596,-1.274 12.378,-4.835 16.476,-9.829 0.667,-0.807 1.283,-1.643 1.841,-2.518 0.318,-0.478 0.617,-0.965 0.896,-1.463 1.661,-2.895 2.815,-6.119 3.352,-9.541 0.239,-1.453 0.358,-2.955 0.358,-4.477 0,-0.666 -0.019,-1.324 -0.08,-1.98 L 44.723,57.606 C 37.937,39.061 20.476,25.868 0,25.868 c -20.755,0 -38.415,13.561 -44.992,32.505 z M 207.504,-11.999 37.121,83.545 c -1.323,9.382 -9.392,16.605 -19.142,16.605 h -35.958 c -9.273,0 -17.033,-6.537 -18.894,-15.253 L -206.59,-13.094 c -4.527,-2.606 -6.069,-8.387 -3.462,-12.904 0.706,-1.224 1.652,-2.239 2.736,-2.995 2.915,-2.06 6.875,-2.367 10.178,-0.468 l 109.583,62.95 C -82.322,8.854 -42.365,-10.944 0,-10.944 c 43.559,0 83.187,19.072 86.56,44.433 l 111.691,-61.974 c 3.035,-1.702 6.606,-1.553 9.412,0.079 1.403,0.826 2.608,2.02 3.463,3.542 2.547,4.547 0.925,10.307 -3.622,12.865" /></g><g
               id="g1536"
               transform="translate(1973.8301,814.0381)"><path
                 inkscape:connector-curvature="0"
                 id="path1534"
                 style="fill:#000000;fill-opacity:1;fill-rule:nonzero;stroke:none"
                 d="m 0,0 c 0,-0.666 -0.02,-1.323 -0.08,-1.979 -1.005,-14.736 -13.282,-26.376 -28.275,-26.376 -15.392,0 -27.909,12.257 -28.336,27.54 -0.02,0.268 -0.02,0.546 -0.02,0.815 0,1.522 0.119,3.024 0.357,4.478 0.528,3.382 1.662,6.566 3.293,9.441 0.33,0.598 0.687,1.185 1.076,1.751 0.387,0.598 0.815,1.184 1.263,1.752 4.268,5.481 10.517,9.351 17.68,10.536 0,0 0,0.01 0.01,0.01 1.522,0.259 3.085,0.387 4.677,0.387 1.86,0 3.67,-0.178 5.431,-0.527 6.597,-1.273 12.378,-4.835 16.477,-9.829 0.667,-0.807 1.283,-1.643 1.841,-2.518 0.318,-0.477 0.617,-0.964 0.895,-1.462 1.661,-2.896 2.815,-6.12 3.353,-9.541 C -0.119,3.024 0,1.522 0,0" /></g></g></g></g><g
         transform="translate(1527.1846,904.2891)"
         id="g1542"><path
           inkscape:connector-curvature="0"
           id="path1544"
           style="fill:#001524;fill-opacity:1;fill-rule:nonzero;stroke:none"
           d="m 0,0 h -94.363 c -4.183,0 -7.575,3.392 -7.575,7.574 v 12.448 c 0,4.183 3.392,7.575 7.575,7.575 H 0 Z" /></g><g
         transform="translate(1527.1846,904.2891)"
         id="g1546"><path
           inkscape:connector-curvature="0"
           id="path1548"
           style="fill:none;stroke:#001524;stroke-width:4;stroke-linecap:butt;stroke-linejoin:miter;stroke-miterlimit:10;stroke-dasharray:none;stroke-opacity:1"
           d="m 0,0 h -94.363 c -4.183,0 -7.575,3.392 -7.575,7.574 v 12.448 c 0,4.183 3.392,7.575 7.575,7.575 H 0 Z" /></g><g
         transform="translate(2419.2822,904.2891)"
         id="g1550"><path
           inkscape:connector-curvature="0"
           id="path1552"
           style="fill:#001524;fill-opacity:1;fill-rule:nonzero;stroke:none"
           d="M 0,0 H -96.875 V 27.597 H 0 c 2.796,0 5.062,-2.267 5.062,-5.063 V 5.062 C 5.062,2.267 2.796,0 0,0" /></g><g
         transform="translate(2419.2822,904.2891)"
         id="g1554"><path
           inkscape:connector-curvature="0"
           id="path1556"
           style="fill:none;stroke:#001524;stroke-width:4;stroke-linecap:butt;stroke-linejoin:miter;stroke-miterlimit:10;stroke-dasharray:none;stroke-opacity:1"
           d="M 0,0 H -96.875 V 27.597 H 0 c 2.796,0 5.062,-2.267 5.062,-5.063 V 5.062 C 5.062,2.267 2.796,0 0,0 Z" /></g><g
         transform="translate(1510.8521,1045.6494)"
         id="g1558"><path
           inkscape:connector-curvature="0"
           id="path1560"
           style="fill:#001524;fill-opacity:1;fill-rule:nonzero;stroke:none"
           d="m 0,0 h -122.204 c -7.817,-36.044 -15.633,-72.088 -23.45,-108.132 h -27.033 c -2.136,36.044 -4.271,72.088 -6.407,108.132 V 33.229 H 0 Z" /></g><g
         transform="translate(1510.8521,1045.6494)"
         id="g1562"><path
           inkscape:connector-curvature="0"
           id="path1564"
           style="fill:none;stroke:#001524;stroke-width:4;stroke-linecap:butt;stroke-linejoin:miter;stroke-miterlimit:10;stroke-dasharray:none;stroke-opacity:1"
           d="m 0,0 h -122.204 c -7.817,-36.044 -15.633,-72.088 -23.45,-108.132 h -27.033 c -2.136,36.044 -4.271,72.088 -6.407,108.132 V 33.229 H 0 Z" /></g><g
         transform="translate(2499.4063,1047.9023)"
         id="g1566"><path
           inkscape:connector-curvature="0"
           id="path1568"
           style="fill:#001524;fill-opacity:1;fill-rule:nonzero;stroke:none"
           d="M 0,0 H -176.999 V 33.791 H 0 c 4.529,0 8.202,-3.672 8.202,-8.201 V 8.202 C 8.202,3.672 4.529,0 0,0" /></g><g
         transform="translate(2499.4063,1047.9023)"
         id="g1570"><path
           inkscape:connector-curvature="0"
           id="path1572"
           style="fill:none;stroke:#001524;stroke-width:4;stroke-linecap:butt;stroke-linejoin:miter;stroke-miterlimit:10;stroke-dasharray:none;stroke-opacity:1"
           d="M 0,0 H -176.999 V 33.791 H 0 c 4.529,0 8.202,-3.672 8.202,-8.201 V 8.202 C 8.202,3.672 4.529,0 0,0 Z" /></g><g
         transform="translate(2126.1465,387)"
         id="g1574"><path
           inkscape:connector-curvature="0"
           id="path1576"
           style="fill:#ffb569;fill-opacity:1;fill-rule:nonzero;stroke:none"
           d="M 0,0 H -402.701 C -532.555,0 -637.822,105.268 -637.822,235.121 V 733.2 c 0,28.033 22.725,50.759 50.759,50.759 h 771.425 c 28.034,0 50.759,-22.726 50.759,-50.759 V 235.121 C 235.121,105.268 129.854,0 0,0" /></g><g
         id="g1578"><g
           id="g1580" /><g
           id="g1612"><g
             style="opacity:0.60000598"
             id="g1610"
             clip-path="url(#clipPath1584)"><g
               id="g1608"><g
                 id="g1606"
                 clip-path="url(#clipPath1588)"><g
                   id="g1604"><g
                     id="g1602"><path
                       inkscape:connector-curvature="0"
                       id="path1600"
                       style="fill:url(#radialGradient1598);stroke:none"
                       d="m 1952.986,871.695 c -1.01,-12.466 -13.35,-22.313 -28.42,-22.313 -15.47,0 -28.05,10.37 -28.48,23.298 l -16.74,-8.139 c 6.61,-16.026 24.36,-27.498 45.22,-27.498 20.58,0 38.13,11.161 44.95,26.85 z m 21.01,-9.915 c -3.75,-19.746 -25.34,-33.996 -49.43,-33.996 -24.05,0 -45.62,14.906 -49.41,34.729 l -31.47,-15.294 c 8.47,-18.365 41.47,-32.06 80.88,-32.06 39.24,0 72.13,13.576 80.77,31.824 z m 149.83,-70.718 -113.5,53.573 c -3.389,-21.454 -41.98,-38.735 -85.76,-38.735 -42.58,0 -81.12,17.802 -86.38,38.642 l -111.76,-54.306 c -3.32,-1.607 -7.3,-1.346 -10.23,0.396 0.29,-5.79 1.65,-13.071 5.61,-21.219 9.74,-20.023 29.83,-34.315 44.19,-42.605 6.08,-3.511 28.47,-15.951 66.53,-25.395 13.91,-3.442 46.73,-11.362 92.3,-11.413 47.41,-0.05 81.47,8.426 95.33,11.978 32.66,8.366 52.46,18.71 58.09,21.765 5.58,3.023 20.68,11.582 33.48,24.712 15.9,16.304 20.53,31.707 21.56,42.674 -2.82,-1.38 -6.41,-1.507 -9.46,-0.067" /></g></g></g></g></g></g></g><g
         transform="translate(1969.5156,862.2402)"
         id="g1614"><path
           inkscape:connector-curvature="0"
           id="path1616"
           style="fill:#c5cab8;fill-opacity:1;fill-rule:nonzero;stroke:none"
           d="m 0,0 c -6.819,-18.641 -24.369,-31.9 -44.949,-31.9 -20.861,0 -38.611,13.629 -45.22,32.67 l 16.739,9.669 C -73,-4.92 -60.419,-17.24 -44.949,-17.24 c 15.069,0 27.409,11.7 28.42,26.51 z" /></g><g
         transform="translate(2005.3359,842.1504)"
         id="g1618"><path
           inkscape:connector-curvature="0"
           id="path1620"
           style="fill:#c5cab8;fill-opacity:1;fill-rule:nonzero;stroke:none"
           d="m 0,0 c -8.64,-21.681 -41.53,-37.811 -80.77,-37.811 -39.41,0 -72.41,16.271 -80.88,38.09 l 31.47,18.17 c 3.79,-23.55 25.36,-41.26 49.41,-41.26 24.09,0 45.68,16.93 49.43,40.391 z" /></g><path
         inkscape:connector-curvature="0"
         id="path1622"
         style="fill:#78290f;fill-opacity:1;fill-rule:nonzero;stroke:none"
         d="m 2288.053,938 h -726.514 v 63 h 726.514 z" /><path
         inkscape:connector-curvature="0"
         id="path1624"
         style="fill:#bc5308;fill-opacity:1;fill-rule:nonzero;stroke:none"
         d="m 2338.177,1001.017 h -826.762 v 127.845 h 826.762 z" /><path
         inkscape:connector-curvature="0"
         id="path1626"
         style="fill:#ff7d00;fill-opacity:1;fill-rule:nonzero;stroke:none"
         d="m 2288.053,915.835 h -726.514 v 21.683 h 726.514 z" /><g
         transform="translate(2190.0947,448.5947)"
         id="g1628"><path
           inkscape:connector-curvature="0"
           id="path1630"
           style="fill:#93543f;fill-opacity:1;fill-rule:nonzero;stroke:none"
           d="m 0,0 h -530.597 c -34.116,0 -61.772,27.656 -61.772,61.771 v 97.434 c 0,15.023 12.178,27.2 27.2,27.2 h 599.74 c 15.023,0 27.2,-12.177 27.2,-27.2 V 61.771 C 61.771,27.656 34.115,0 0,0" /></g><g
         transform="translate(1642.6035,592.9482)"
         id="g1632"><path
           inkscape:connector-curvature="0"
           id="path1634"
           style="fill:#ffecd1;fill-opacity:1;fill-rule:nonzero;stroke:none"
           d="m 0,0 h -2.209 c -7.675,0 -13.896,6.222 -13.896,13.896 v 2.209 c 0,7.675 6.221,13.897 13.896,13.897 H 0 c 7.675,0 13.896,-6.222 13.896,-13.897 V 13.896 C 13.896,6.222 7.675,0 0,0" /></g><g
         transform="translate(1685.8853,592.9482)"
         id="g1636"><path
           inkscape:connector-curvature="0"
           id="path1638"
           style="fill:#ffecd1;fill-opacity:1;fill-rule:nonzero;stroke:none"
           d="m 0,0 h -2.209 c -7.675,0 -13.896,6.222 -13.896,13.896 v 2.209 c 0,7.675 6.221,13.897 13.896,13.897 H 0 c 7.675,0 13.896,-6.222 13.896,-13.897 V 13.896 C 13.896,6.222 7.675,0 0,0" /></g><g
         transform="translate(1729.6582,592.9482)"
         id="g1640"><path
           inkscape:connector-curvature="0"
           id="path1642"
           style="fill:#ffecd1;fill-opacity:1;fill-rule:nonzero;stroke:none"
           d="m 0,0 h -2.209 c -7.675,0 -13.896,6.222 -13.896,13.896 v 2.209 c 0,7.675 6.221,13.897 13.896,13.897 H 0 c 7.675,0 13.896,-6.222 13.896,-13.897 V 13.896 C 13.896,6.222 7.675,0 0,0" /></g><g
         transform="translate(1772.4482,592.9482)"
         id="g1644"><path
           inkscape:connector-curvature="0"
           id="path1646"
           style="fill:#ffecd1;fill-opacity:1;fill-rule:nonzero;stroke:none"
           d="m 0,0 h -2.209 c -7.675,0 -13.897,6.222 -13.897,13.896 v 2.209 c 0,7.675 6.222,13.897 13.897,13.897 H 0 c 7.675,0 13.896,-6.222 13.896,-13.897 V 13.896 C 13.896,6.222 7.675,0 0,0" /></g><g
         transform="translate(1817.2051,592.9482)"
         id="g1648"><path
           inkscape:connector-curvature="0"
           id="path1650"
           style="fill:#ffecd1;fill-opacity:1;fill-rule:nonzero;stroke:none"
           d="m 0,0 h -2.209 c -7.675,0 -13.896,6.222 -13.896,13.896 v 2.209 c 0,7.675 6.221,13.897 13.896,13.897 H 0 c 7.675,0 13.896,-6.222 13.896,-13.897 V 13.896 C 13.896,6.222 7.675,0 0,0" /></g><g
         transform="translate(1859.0112,592.9482)"
         id="g1652"><path
           inkscape:connector-curvature="0"
           id="path1654"
           style="fill:#ffecd1;fill-opacity:1;fill-rule:nonzero;stroke:none"
           d="m 0,0 h -2.209 c -7.675,0 -13.897,6.222 -13.897,13.896 v 2.209 c 0,7.675 6.222,13.897 13.897,13.897 H 0 c 7.674,0 13.896,-6.222 13.896,-13.897 V 13.896 C 13.896,6.222 7.674,0 0,0" /></g><g
         transform="translate(1902.2925,592.9482)"
         id="g1656"><path
           inkscape:connector-curvature="0"
           id="path1658"
           style="fill:#ffecd1;fill-opacity:1;fill-rule:nonzero;stroke:none"
           d="m 0,0 h -2.209 c -7.675,0 -13.896,6.222 -13.896,13.896 v 2.209 c 0,7.675 6.221,13.897 13.896,13.897 H 0 c 7.675,0 13.896,-6.222 13.896,-13.897 V 13.896 C 13.896,6.222 7.675,0 0,0" /></g><g
         transform="translate(1946.0654,592.9482)"
         id="g1660"><path
           inkscape:connector-curvature="0"
           id="path1662"
           style="fill:#ffecd1;fill-opacity:1;fill-rule:nonzero;stroke:none"
           d="m 0,0 h -2.209 c -7.675,0 -13.896,6.222 -13.896,13.896 v 2.209 c 0,7.675 6.221,13.897 13.896,13.897 H 0 c 7.675,0 13.896,-6.222 13.896,-13.897 V 13.896 C 13.896,6.222 7.675,0 0,0" /></g><g
         transform="translate(1988.8555,592.9482)"
         id="g1664"><path
           inkscape:connector-curvature="0"
           id="path1666"
           style="fill:#ffecd1;fill-opacity:1;fill-rule:nonzero;stroke:none"
           d="m 0,0 h -2.209 c -7.675,0 -13.896,6.222 -13.896,13.896 v 2.209 c 0,7.675 6.221,13.897 13.896,13.897 H 0 c 7.675,0 13.896,-6.222 13.896,-13.897 V 13.896 C 13.896,6.222 7.675,0 0,0" /></g><g
         transform="translate(2033.6123,592.9482)"
         id="g1668"><path
           inkscape:connector-curvature="0"
           id="path1670"
           style="fill:#ffecd1;fill-opacity:1;fill-rule:nonzero;stroke:none"
           d="m 0,0 h -2.209 c -7.675,0 -13.896,6.222 -13.896,13.896 v 2.209 c 0,7.675 6.221,13.897 13.896,13.897 H 0 c 7.675,0 13.896,-6.222 13.896,-13.897 V 13.896 C 13.896,6.222 7.675,0 0,0" /></g><g
         transform="translate(1666.3252,550.6504)"
         id="g1672"><path
           inkscape:connector-curvature="0"
           id="path1674"
           style="fill:#ffecd1;fill-opacity:1;fill-rule:nonzero;stroke:none"
           d="m 0,0 h -4.782 c -7.675,0 -13.896,6.222 -13.896,13.896 v 2.209 c 0,7.675 6.221,13.897 13.896,13.897 H 0 c 7.674,0 13.896,-6.222 13.896,-13.897 V 13.896 C 13.896,6.222 7.674,0 0,0" /></g><g
         transform="translate(1713.8516,550.6504)"
         id="g1676"><path
           inkscape:connector-curvature="0"
           id="path1678"
           style="fill:#ffecd1;fill-opacity:1;fill-rule:nonzero;stroke:none"
           d="m 0,0 h -4.782 c -7.675,0 -13.896,6.222 -13.896,13.896 v 2.209 c 0,7.675 6.221,13.897 13.896,13.897 H 0 c 7.675,0 13.896,-6.222 13.896,-13.897 V 13.896 C 13.896,6.222 7.675,0 0,0" /></g><g
         transform="translate(1760.3101,550.6504)"
         id="g1680"><path
           inkscape:connector-curvature="0"
           id="path1682"
           style="fill:#ffecd1;fill-opacity:1;fill-rule:nonzero;stroke:none"
           d="m 0,0 h -4.782 c -7.675,0 -13.896,6.222 -13.896,13.896 v 2.209 c 0,7.675 6.221,13.897 13.896,13.897 H 0 c 7.675,0 13.896,-6.222 13.896,-13.897 V 13.896 C 13.896,6.222 7.675,0 0,0" /></g><g
         transform="translate(1808.9043,550.6504)"
         id="g1684"><path
           inkscape:connector-curvature="0"
           id="path1686"
           style="fill:#ffecd1;fill-opacity:1;fill-rule:nonzero;stroke:none"
           d="m 0,0 h -4.781 c -7.675,0 -13.897,6.222 -13.897,13.896 v 2.209 c 0,7.675 6.222,13.897 13.897,13.897 H 0 c 7.675,0 13.896,-6.222 13.896,-13.897 V 13.896 C 13.896,6.222 7.675,0 0,0" /></g><g
         transform="translate(1854.2949,550.6504)"
         id="g1688"><path
           inkscape:connector-curvature="0"
           id="path1690"
           style="fill:#ffecd1;fill-opacity:1;fill-rule:nonzero;stroke:none"
           d="m 0,0 h -4.782 c -7.674,0 -13.896,6.222 -13.896,13.896 v 2.209 c 0,7.675 6.222,13.897 13.896,13.897 H 0 c 7.675,0 13.896,-6.222 13.896,-13.897 V 13.896 C 13.896,6.222 7.675,0 0,0" /></g><g
         transform="translate(1901.2876,550.6504)"
         id="g1692"><path
           inkscape:connector-curvature="0"
           id="path1694"
           style="fill:#ffecd1;fill-opacity:1;fill-rule:nonzero;stroke:none"
           d="m 0,0 h -4.782 c -7.675,0 -13.896,6.222 -13.896,13.896 v 2.209 c 0,7.675 6.221,13.897 13.896,13.897 H 0 c 7.675,0 13.896,-6.222 13.896,-13.897 V 13.896 C 13.896,6.222 7.675,0 0,0" /></g><g
         transform="translate(1948.8145,550.6504)"
         id="g1696"><path
           inkscape:connector-curvature="0"
           id="path1698"
           style="fill:#ffecd1;fill-opacity:1;fill-rule:nonzero;stroke:none"
           d="m 0,0 h -4.782 c -7.675,0 -13.897,6.222 -13.897,13.896 v 2.209 c 0,7.675 6.222,13.897 13.897,13.897 H 0 c 7.675,0 13.896,-6.222 13.896,-13.897 V 13.896 C 13.896,6.222 7.675,0 0,0" /></g><g
         transform="translate(1995.2725,550.6504)"
         id="g1700"><path
           inkscape:connector-curvature="0"
           id="path1702"
           style="fill:#ffecd1;fill-opacity:1;fill-rule:nonzero;stroke:none"
           d="m 0,0 h -4.781 c -7.675,0 -13.897,6.222 -13.897,13.896 v 2.209 c 0,7.675 6.222,13.897 13.897,13.897 H 0 c 7.675,0 13.896,-6.222 13.896,-13.897 V 13.896 C 13.896,6.222 7.675,0 0,0" /></g><g
         transform="translate(2043.8672,550.6504)"
         id="g1704"><path
           inkscape:connector-curvature="0"
           id="path1706"
           style="fill:#ffecd1;fill-opacity:1;fill-rule:nonzero;stroke:none"
           d="m 0,0 h -4.781 c -7.675,0 -13.897,6.222 -13.897,13.896 v 2.209 c 0,7.675 6.222,13.897 13.897,13.897 H 0 c 7.675,0 13.896,-6.222 13.896,-13.897 V 13.896 C 13.896,6.222 7.675,0 0,0" /></g><g
         transform="translate(1685.8853,508.3525)"
         id="g1708"><path
           inkscape:connector-curvature="0"
           id="path1710"
           style="fill:#ffecd1;fill-opacity:1;fill-rule:nonzero;stroke:none"
           d="m 0,0 h -2.209 c -7.675,0 -13.896,6.222 -13.896,13.896 v 2.209 c 0,7.675 6.221,13.897 13.896,13.897 H 0 c 7.675,0 13.896,-6.222 13.896,-13.897 V 13.896 C 13.896,6.222 7.675,0 0,0" /></g><g
         transform="translate(1729.6582,508.3525)"
         id="g1712"><path
           inkscape:connector-curvature="0"
           id="path1714"
           style="fill:#ffecd1;fill-opacity:1;fill-rule:nonzero;stroke:none"
           d="m 0,0 h -2.209 c -7.675,0 -13.896,6.222 -13.896,13.896 v 2.209 c 0,7.675 6.221,13.897 13.896,13.897 H 0 c 7.675,0 13.896,-6.222 13.896,-13.897 V 13.896 C 13.896,6.222 7.675,0 0,0" /></g><g
         transform="translate(1772.4482,508.3525)"
         id="g1716"><path
           inkscape:connector-curvature="0"
           id="path1718"
           style="fill:#ffecd1;fill-opacity:1;fill-rule:nonzero;stroke:none"
           d="m 0,0 h -2.209 c -7.675,0 -13.897,6.222 -13.897,13.896 v 2.209 c 0,7.675 6.222,13.897 13.897,13.897 H 0 c 7.675,0 13.896,-6.222 13.896,-13.897 V 13.896 C 13.896,6.222 7.675,0 0,0" /></g><g
         transform="translate(1817.2051,508.3525)"
         id="g1720"><path
           inkscape:connector-curvature="0"
           id="path1722"
           style="fill:#ffecd1;fill-opacity:1;fill-rule:nonzero;stroke:none"
           d="m 0,0 h -2.209 c -7.675,0 -13.896,6.222 -13.896,13.896 v 2.209 c 0,7.675 6.221,13.897 13.896,13.897 H 0 c 7.675,0 13.896,-6.222 13.896,-13.897 V 13.896 C 13.896,6.222 7.675,0 0,0" /></g><g
         transform="translate(1859.0112,508.3525)"
         id="g1724"><path
           inkscape:connector-curvature="0"
           id="path1726"
           style="fill:#ffecd1;fill-opacity:1;fill-rule:nonzero;stroke:none"
           d="m 0,0 h -2.209 c -7.675,0 -13.897,6.222 -13.897,13.896 v 2.209 c 0,7.675 6.222,13.897 13.897,13.897 H 0 c 7.674,0 13.896,-6.222 13.896,-13.897 V 13.896 C 13.896,6.222 7.674,0 0,0" /></g><g
         transform="translate(1902.2925,508.3525)"
         id="g1728"><path
           inkscape:connector-curvature="0"
           id="path1730"
           style="fill:#ffecd1;fill-opacity:1;fill-rule:nonzero;stroke:none"
           d="m 0,0 h -2.209 c -7.675,0 -13.896,6.222 -13.896,13.896 v 2.209 c 0,7.675 6.221,13.897 13.896,13.897 H 0 c 7.675,0 13.896,-6.222 13.896,-13.897 V 13.896 C 13.896,6.222 7.675,0 0,0" /></g><g
         transform="translate(1946.0654,508.3525)"
         id="g1732"><path
           inkscape:connector-curvature="0"
           id="path1734"
           style="fill:#ffecd1;fill-opacity:1;fill-rule:nonzero;stroke:none"
           d="m 0,0 h -2.209 c -7.675,0 -13.896,6.222 -13.896,13.896 v 2.209 c 0,7.675 6.221,13.897 13.896,13.897 H 0 c 7.675,0 13.896,-6.222 13.896,-13.897 V 13.896 C 13.896,6.222 7.675,0 0,0" /></g><g
         transform="translate(1988.8555,508.3525)"
         id="g1736"><path
           inkscape:connector-curvature="0"
           id="path1738"
           style="fill:#ffecd1;fill-opacity:1;fill-rule:nonzero;stroke:none"
           d="m 0,0 h -2.209 c -7.675,0 -13.896,6.222 -13.896,13.896 v 2.209 c 0,7.675 6.221,13.897 13.896,13.897 H 0 c 7.675,0 13.896,-6.222 13.896,-13.897 V 13.896 C 13.896,6.222 7.675,0 0,0" /></g><g
         transform="translate(2033.6123,508.3525)"
         id="g1740"><path
           inkscape:connector-curvature="0"
           id="path1742"
           style="fill:#ffecd1;fill-opacity:1;fill-rule:nonzero;stroke:none"
           d="m 0,0 h -2.209 c -7.675,0 -13.896,6.222 -13.896,13.896 v 2.209 c 0,7.675 6.221,13.897 13.896,13.897 H 0 c 7.675,0 13.896,-6.222 13.896,-13.897 V 13.896 C 13.896,6.222 7.675,0 0,0" /></g><g
         transform="translate(1692.6968,466.0547)"
         id="g1744"><path
           inkscape:connector-curvature="0"
           id="path1746"
           style="fill:#ffecd1;fill-opacity:1;fill-rule:nonzero;stroke:none"
           d="m 0,0 h -2.209 c -7.675,0 -13.897,6.222 -13.897,13.896 v 2.209 c 0,7.675 6.222,13.897 13.897,13.897 H 0 c 7.675,0 13.896,-6.222 13.896,-13.897 V 13.896 C 13.896,6.222 7.675,0 0,0" /></g><g
         transform="translate(1736.4697,466.0547)"
         id="g1748"><path
           inkscape:connector-curvature="0"
           id="path1750"
           style="fill:#ffecd1;fill-opacity:1;fill-rule:nonzero;stroke:none"
           d="m 0,0 h -2.209 c -7.675,0 -13.896,6.222 -13.896,13.896 v 2.209 c 0,7.675 6.221,13.897 13.896,13.897 H 0 c 7.675,0 13.896,-6.222 13.896,-13.897 V 13.896 C 13.896,6.222 7.675,0 0,0" /></g><g
         transform="translate(1779.2598,466.0547)"
         id="g1752"><path
           inkscape:connector-curvature="0"
           id="path1754"
           style="fill:#ffecd1;fill-opacity:1;fill-rule:nonzero;stroke:none"
           d="m 0,0 h -2.209 c -7.675,0 -13.897,6.222 -13.897,13.896 v 2.209 c 0,7.675 6.222,13.897 13.897,13.897 H 0 c 7.674,0 13.896,-6.222 13.896,-13.897 V 13.896 C 13.896,6.222 7.674,0 0,0" /></g><g
         transform="translate(1988.8555,466.0547)"
         id="g1756"><path
           inkscape:connector-curvature="0"
           id="path1758"
           style="fill:#ffecd1;fill-opacity:1;fill-rule:nonzero;stroke:none"
           d="m 0,0 h -173.859 c -7.675,0 -13.897,6.222 -13.897,13.896 v 2.209 c 0,7.675 6.222,13.897 13.897,13.897 L 0,30.002 c 7.675,0 13.896,-6.222 13.896,-13.897 V 13.896 C 13.896,6.222 7.675,0 0,0" /></g><g
         transform="translate(2025.8174,466.0547)"
         id="g1760"><path
           inkscape:connector-curvature="0"
           id="path1762"
           style="fill:#ffecd1;fill-opacity:1;fill-rule:nonzero;stroke:none"
           d="m 0,0 h -2.209 c -7.675,0 -13.896,6.222 -13.896,13.896 v 2.209 c 0,7.675 6.221,13.897 13.896,13.897 H 0 c 7.675,0 13.896,-6.222 13.896,-13.897 V 13.896 C 13.896,6.222 7.675,0 0,0" /></g><g
         transform="translate(2079.3535,592.9482)"
         id="g1764"><path
           inkscape:connector-curvature="0"
           id="path1766"
           style="fill:#ffecd1;fill-opacity:1;fill-rule:nonzero;stroke:none"
           d="m 0,0 h -2.21 c -7.675,0 -13.896,6.222 -13.896,13.896 v 2.209 c 0,7.675 6.221,13.897 13.896,13.897 H 0 c 7.675,0 13.896,-6.222 13.896,-13.897 V 13.896 C 13.896,6.222 7.675,0 0,0" /></g><g
         transform="translate(2122.6348,592.9482)"
         id="g1768"><path
           inkscape:connector-curvature="0"
           id="path1770"
           style="fill:#ffecd1;fill-opacity:1;fill-rule:nonzero;stroke:none"
           d="m 0,0 h -2.209 c -7.675,0 -13.896,6.222 -13.896,13.896 v 2.209 c 0,7.675 6.221,13.897 13.896,13.897 H 0 c 7.675,0 13.896,-6.222 13.896,-13.897 V 13.896 C 13.896,6.222 7.675,0 0,0" /></g><g
         transform="translate(2166.4082,592.9482)"
         id="g1772"><path
           inkscape:connector-curvature="0"
           id="path1774"
           style="fill:#ffecd1;fill-opacity:1;fill-rule:nonzero;stroke:none"
           d="m 0,0 h -2.21 c -7.674,0 -13.895,6.222 -13.895,13.896 v 2.209 c 0,7.675 6.221,13.897 13.895,13.897 H 0 c 7.675,0 13.896,-6.222 13.896,-13.897 V 13.896 C 13.896,6.222 7.675,0 0,0" /></g><g
         transform="translate(2209.1973,592.9482)"
         id="g1776"><path
           inkscape:connector-curvature="0"
           id="path1778"
           style="fill:#ffecd1;fill-opacity:1;fill-rule:nonzero;stroke:none"
           d="m 0,0 h -2.209 c -7.675,0 -13.896,6.222 -13.896,13.896 v 2.209 c 0,7.675 6.221,13.897 13.896,13.897 H 0 c 7.675,0 13.896,-6.222 13.896,-13.897 V 13.896 C 13.896,6.222 7.675,0 0,0" /></g><g
         transform="translate(2093.5293,550.6504)"
         id="g1780"><path
           inkscape:connector-curvature="0"
           id="path1782"
           style="fill:#ffecd1;fill-opacity:1;fill-rule:nonzero;stroke:none"
           d="m 0,0 h -4.781 c -7.675,0 -13.897,6.222 -13.897,13.896 v 2.209 c 0,7.675 6.222,13.897 13.897,13.897 H 0 c 7.675,0 13.896,-6.222 13.896,-13.897 V 13.896 C 13.896,6.222 7.675,0 0,0" /></g><g
         transform="translate(2140.5225,550.6504)"
         id="g1784"><path
           inkscape:connector-curvature="0"
           id="path1786"
           style="fill:#ffecd1;fill-opacity:1;fill-rule:nonzero;stroke:none"
           d="m 0,0 h -4.782 c -7.675,0 -13.897,6.222 -13.897,13.896 v 2.209 c 0,7.675 6.222,13.897 13.897,13.897 H 0 c 7.675,0 13.896,-6.222 13.896,-13.897 V 13.896 C 13.896,6.222 7.675,0 0,0" /></g><g
         transform="translate(2188.0488,550.6504)"
         id="g1788"><path
           inkscape:connector-curvature="0"
           id="path1790"
           style="fill:#ffecd1;fill-opacity:1;fill-rule:nonzero;stroke:none"
           d="m 0,0 h -4.782 c -7.675,0 -13.896,6.222 -13.896,13.896 v 2.209 c 0,7.675 6.221,13.897 13.896,13.897 H 0 c 7.675,0 13.896,-6.222 13.896,-13.897 V 13.896 C 13.896,6.222 7.675,0 0,0" /></g><g
         transform="translate(2079.3535,508.3525)"
         id="g1792"><path
           inkscape:connector-curvature="0"
           id="path1794"
           style="fill:#ffecd1;fill-opacity:1;fill-rule:nonzero;stroke:none"
           d="m 0,0 h -2.21 c -7.675,0 -13.896,6.222 -13.896,13.896 v 2.209 c 0,7.675 6.221,13.897 13.896,13.897 H 0 c 7.675,0 13.896,-6.222 13.896,-13.897 V 13.896 C 13.896,6.222 7.675,0 0,0" /></g><g
         transform="translate(2122.6348,508.3525)"
         id="g1796"><path
           inkscape:connector-curvature="0"
           id="path1798"
           style="fill:#ffecd1;fill-opacity:1;fill-rule:nonzero;stroke:none"
           d="m 0,0 h -2.209 c -7.675,0 -13.896,6.222 -13.896,13.896 v 2.209 c 0,7.675 6.221,13.897 13.896,13.897 H 0 c 7.675,0 13.896,-6.222 13.896,-13.897 V 13.896 C 13.896,6.222 7.675,0 0,0" /></g><g
         transform="translate(2166.4082,508.3525)"
         id="g1800"><path
           inkscape:connector-curvature="0"
           id="path1802"
           style="fill:#ffecd1;fill-opacity:1;fill-rule:nonzero;stroke:none"
           d="m 0,0 h -2.21 c -7.674,0 -13.895,6.222 -13.895,13.896 v 2.209 c 0,7.675 6.221,13.897 13.895,13.897 H 0 c 7.675,0 13.896,-6.222 13.896,-13.897 V 13.896 C 13.896,6.222 7.675,0 0,0" /></g><g
         transform="translate(2071.5576,466.0547)"
         id="g1804"><path
           inkscape:connector-curvature="0"
           id="path1806"
           style="fill:#ffecd1;fill-opacity:1;fill-rule:nonzero;stroke:none"
           d="m 0,0 h -2.209 c -7.675,0 -13.896,6.222 -13.896,13.896 v 2.209 c 0,7.675 6.221,13.897 13.896,13.897 H 0 c 7.675,0 13.896,-6.222 13.896,-13.897 V 13.896 C 13.896,6.222 7.675,0 0,0" /></g><g
         transform="translate(2114.8398,466.0547)"
         id="g1808"><path
           inkscape:connector-curvature="0"
           id="path1810"
           style="fill:#ffecd1;fill-opacity:1;fill-rule:nonzero;stroke:none"
           d="m 0,0 h -2.21 c -7.675,0 -13.896,6.222 -13.896,13.896 v 2.209 c 0,7.675 6.221,13.897 13.896,13.897 H 0 c 7.675,0 13.896,-6.222 13.896,-13.897 V 13.896 C 13.896,6.222 7.675,0 0,0" /></g><g
         transform="translate(2158.6123,466.0547)"
         id="g1812"><path
           inkscape:connector-curvature="0"
           id="path1814"
           style="fill:#ffecd1;fill-opacity:1;fill-rule:nonzero;stroke:none"
           d="m 0,0 h -2.209 c -7.675,0 -13.896,6.222 -13.896,13.896 v 2.209 c 0,7.675 6.221,13.897 13.896,13.897 H 0 c 7.675,0 13.896,-6.222 13.896,-13.897 V 13.896 C 13.896,6.222 7.675,0 0,0" /></g><path
         inkscape:connector-curvature="0"
         id="path1816"
         style="fill:#fff7eb;fill-opacity:1;fill-rule:nonzero;stroke:none"
         d="m 2183.474,939.528 h -517.31 V 1570 h 517.31 z" /><g
         transform="translate(1739.0659,647.333)"
         id="g1818"><path
           inkscape:connector-curvature="0"
           id="path1820"
           style="fill:#ffecd1;fill-opacity:1;fill-rule:nonzero;stroke:none"
           d="m 0,0 h -108 c -6.903,0 -12.5,5.597 -12.5,12.5 0,6.904 5.597,12.5 12.5,12.5 H 0 C 6.904,25 12.5,19.404 12.5,12.5 12.5,5.597 6.904,0 0,0" /></g><g
         transform="translate(1741.5659,659.833)"
         id="g1822"><path
           inkscape:connector-curvature="0"
           id="path1824"
           style="fill:#ffb569;fill-opacity:1;fill-rule:nonzero;stroke:none"
           d="M 0,0 C 0,-1.933 -1.567,-3.5 -3.5,-3.5 -5.433,-3.5 -7,-1.933 -7,0 -7,1.934 -5.433,3.5 -3.5,3.5 -1.567,3.5 0,1.934 0,0" /></g><g
         transform="translate(1924.5664,804.3398)"
         id="g1826"><path
           inkscape:connector-curvature="0"
           id="path1828"
           style="fill:#001524;fill-opacity:1;fill-rule:nonzero;stroke:none"
           d="M 0,0 C -39.41,0 -72.41,16.271 -80.88,38.09 L -53,54.66 C -49.21,31.11 -24.05,15 0,15 24.09,15 48.25,30.2 52,53.66 L 80.77,37.811 C 72.13,16.13 39.239,0 0,0 m -28.48,68.34 c -0.02,0.27 -0.02,0.551 -0.02,0.82 0,1.53 0.12,3.04 0.359,4.5 0.531,3.401 1.671,6.6 3.31,9.49 0.331,0.6 0.69,1.19 1.081,1.76 0.39,0.6 0.82,1.19 1.27,1.76 4.29,5.51 10.57,9.4 17.77,10.59 0,0 0,0.011 0.01,0.011 1.53,0.259 3.099,0.389 4.7,0.389 1.869,0 3.689,-0.18 5.46,-0.53 6.63,-1.28 12.439,-4.859 16.56,-9.88 0.669,-0.81 1.29,-1.65 1.849,-2.529 0.32,-0.481 0.62,-0.971 0.901,-1.471 1.669,-2.91 2.83,-6.15 3.37,-9.59 0.24,-1.46 0.36,-2.97 0.36,-4.5 0,-0.67 -0.021,-1.33 -0.08,-1.99 L 44.949,57.9 C 38.13,39.26 20.58,26 0,26 -20.86,26 -38.61,39.63 -45.22,58.67 Z M 208.56,-12.06 37.31,83.971 C 35.979,93.4 27.869,100.66 18.069,100.66 H -18.07 c -9.321,0 -17.12,-6.57 -18.991,-15.33 l -170.58,-98.49 c -4.549,-2.619 -6.099,-8.43 -3.48,-12.97 0.711,-1.229 1.661,-2.25 2.75,-3.01 2.931,-2.07 6.911,-2.38 10.23,-0.469 L -88,33.66 C -82.74,8.9 -42.581,-11 0,-11 43.779,-11 83.609,8.17 87,33.66 l 112.26,-62.29 c 3.05,-1.71 6.639,-1.559 9.46,0.08 1.41,0.83 2.62,2.03 3.479,3.56 2.561,4.57 0.931,10.36 -3.639,12.93" /></g><g
         transform="translate(1953.0664,873.5)"
         id="g1830"><path
           inkscape:connector-curvature="0"
           id="path1832"
           style="fill:#fff7eb;fill-opacity:1;fill-rule:nonzero;stroke:none"
           d="M 0,0 C 0,-0.67 -0.021,-1.33 -0.08,-1.99 -1.091,-16.8 -13.431,-28.5 -28.5,-28.5 c -15.47,0 -28.05,12.32 -28.48,27.68 C -57,-0.55 -57,-0.27 -57,0 c 0,1.53 0.12,3.04 0.359,4.5 0.531,3.4 1.671,6.6 3.31,9.49 0.331,0.6 0.69,1.19 1.081,1.76 0.39,0.6 0.82,1.189 1.27,1.76 4.29,5.51 10.57,9.4 17.77,10.59 0,0 0,0.01 0.01,0.01 1.53,0.26 3.099,0.39 4.7,0.39 1.869,0 3.689,-0.18 5.46,-0.53 6.63,-1.281 12.439,-4.86 16.56,-9.88 0.669,-0.81 1.29,-1.651 1.849,-2.529 0.32,-0.481 0.62,-0.971 0.901,-1.471 C -2.061,11.18 -0.9,7.939 -0.36,4.5 -0.12,3.04 0,1.53 0,0" /></g><g
         transform="translate(1960.749,1089.7012)"
         id="g1834"><path
           inkscape:connector-curvature="0"
           id="path1836"
           style="fill:#fff7eb;fill-opacity:1;fill-rule:nonzero;stroke:none"
           d="m 0,0 c 0.59,-0.649 1.196,-1.317 1.786,-1.967 28.401,-9.549 56.8,-19.113 85.2,-28.662 -9.201,23.783 -18.4,47.583 -27.601,71.365 -0.711,0.745 -1.403,1.49 -2.113,2.234 C 48.299,36.224 39.309,29.496 30.336,22.751 20.229,15.167 10.105,7.584 0,0" /></g><g
         transform="translate(1960.749,1089.7012)"
         id="g1838"><path
           inkscape:connector-curvature="0"
           id="path1840"
           style="fill:none;stroke:#000000;stroke-width:8.08300018;stroke-linecap:butt;stroke-linejoin:miter;stroke-miterlimit:10;stroke-dasharray:none;stroke-opacity:1"
           d="m 0,0 c 0.59,-0.649 1.196,-1.317 1.786,-1.967 28.401,-9.549 56.8,-19.113 85.2,-28.662 -9.201,23.783 -18.4,47.583 -27.601,71.365 -0.711,0.745 -1.403,1.49 -2.113,2.234 C 48.299,36.224 39.309,29.496 30.336,22.751 20.229,15.167 10.105,7.584 0,0 Z" /></g><g
         transform="translate(1778.8965,1289.9824)"
         id="g1842"><path
           inkscape:connector-curvature="0"
           id="path1844"
           style="fill:#fff7eb;fill-opacity:1;fill-rule:nonzero;stroke:none"
           d="m 0,0 c 60.617,-66.76 121.235,-133.521 181.853,-200.281 10.105,7.584 20.229,15.167 30.335,22.751 8.973,6.745 17.963,13.472 26.937,20.218 C 176.337,-90.898 113.532,-24.484 50.743,41.912 43.275,49.82 35.808,57.728 28.339,65.618 18.472,65.667 9.501,63.015 2.259,58.607 -7.982,52.438 -14.782,42.796 -15.857,32.361 -17.746,14.144 -1.395,1.089 0,0" /></g><g
         transform="translate(1778.8965,1289.9824)"
         id="g1846"><path
           inkscape:connector-curvature="0"
           id="path1848"
           style="fill:none;stroke:#000000;stroke-width:8.08300018;stroke-linecap:butt;stroke-linejoin:miter;stroke-miterlimit:10;stroke-dasharray:none;stroke-opacity:1"
           d="m 0,0 c 60.617,-66.76 121.235,-133.521 181.853,-200.281 10.105,7.584 20.229,15.167 30.335,22.751 8.973,6.745 17.963,13.472 26.937,20.218 C 176.337,-90.898 113.532,-24.484 50.743,41.912 43.275,49.82 35.808,57.728 28.339,65.618 18.472,65.667 9.501,63.015 2.259,58.607 -7.982,52.438 -14.782,42.796 -15.857,32.361 -17.746,14.144 -1.395,1.089 0,0 Z" /></g><g
         transform="translate(1829.6396,1331.894)"
         id="g1850"><path
           inkscape:connector-curvature="0"
           id="path1852"
           style="fill:#fff7eb;fill-opacity:1;fill-rule:nonzero;stroke:#000000;stroke-width:8.08300018;stroke-linecap:butt;stroke-linejoin:miter;stroke-miterlimit:10;stroke-dasharray:none;stroke-opacity:1"
           d="m 0,0 c -6.473,-5.347 -12.927,-10.677 -19.401,-16.024 -10.453,-8.635 -20.888,-17.253 -31.342,-25.888" /></g><g
         transform="translate(1990.6777,1112.6025)"
         id="g1854"><path
           inkscape:connector-curvature="0"
           id="path1856"
           style="fill:#fff7eb;fill-opacity:1;fill-rule:nonzero;stroke:#000000;stroke-width:8.08300018;stroke-linecap:butt;stroke-linejoin:miter;stroke-miterlimit:10;stroke-dasharray:none;stroke-opacity:1"
           d="m 0,0 c -3.417,3.658 -6.82,7.301 -10.222,10.957 -50.392,53.98 -100.77,107.944 -151.163,161.924 -8.098,8.686 -16.212,17.359 -24.31,26.045" /></g><g
         transform="translate(2086.5645,1315.5342)"
         id="g1858"><path
           inkscape:connector-curvature="0"
           id="path1860"
           style="fill:#fff7eb;fill-opacity:1;fill-rule:nonzero;stroke:none"
           d="m 0,0 c -44.383,-42.862 -88.766,-85.724 -133.147,-128.586 -17.288,-4.09 -34.574,-8.18 -51.861,-12.27 14.598,-5.744 29.195,-11.487 43.792,-17.229 -32.176,-25.636 -61.993,-35.482 -80.08,-39.74 -23.112,-5.441 -47.725,-11.234 -61.27,2.104 -13.639,13.43 -9.406,39.707 -5.586,63.425 3.137,19.476 12.161,41.398 12.275,41.662 0.021,0.048 0.044,0.1 0.044,0.1 0.319,0.736 0.563,1.281 0.567,1.289 0.349,0.764 28.5,-5.723 31.595,-6.438 -0.602,10.504 -1.204,21.008 -1.806,31.512 19.544,16.533 52.107,39.814 97.559,54.864 C -83.367,12.067 -27.604,5.32 0,0" /></g><g
         transform="translate(2086.5645,1315.5342)"
         id="g1862"><path
           inkscape:connector-curvature="0"
           id="path1864"
           style="fill:none;stroke:#000000;stroke-width:8.08300018;stroke-linecap:round;stroke-linejoin:miter;stroke-miterlimit:10;stroke-dasharray:none;stroke-opacity:1"
           d="m 0,0 c -44.383,-42.862 -88.766,-85.724 -133.147,-128.586 -17.288,-4.09 -34.574,-8.18 -51.861,-12.27 14.598,-5.744 29.195,-11.487 43.792,-17.229 -32.176,-25.636 -61.993,-35.482 -80.08,-39.74 -23.112,-5.441 -47.725,-11.234 -61.27,2.104 -13.639,13.43 -9.406,39.707 -5.586,63.425 3.137,19.476 12.161,41.398 12.275,41.662 0.021,0.048 0.044,0.1 0.044,0.1 0.319,0.736 0.563,1.281 0.567,1.289 0.349,0.764 28.5,-5.723 31.595,-6.438 -0.602,10.504 -1.204,21.008 -1.806,31.512 19.544,16.533 52.107,39.814 97.559,54.864 C -83.367,12.067 -27.604,5.32 0,0 Z" /></g><g
         transform="translate(1957.0049,1265.1143)"
         id="g1866"><path
           inkscape:connector-curvature="0"
           id="path1868"
           style="fill:#fff7eb;fill-opacity:1;fill-rule:nonzero;stroke:#000000;stroke-width:8.08300018;stroke-linecap:round;stroke-linejoin:miter;stroke-miterlimit:10;stroke-dasharray:none;stroke-opacity:1"
           d="m 0,0 c -31.015,-16.924 -75.063,-45.679 -117.531,-92.319 -36.535,-40.126 -59.528,-79.901 -73.739,-109.548" /></g><g
         transform="translate(1730.7349,1477.623)"
         id="g1870"><path
           inkscape:connector-curvature="0"
           id="path1872"
           style="fill:none;stroke:#000000;stroke-width:5.77400017;stroke-linecap:round;stroke-linejoin:miter;stroke-miterlimit:10;stroke-dasharray:none;stroke-opacity:1"
           d="M 0,0 H 387.982" /></g><g
         transform="translate(1730.7349,1426.8159)"
         id="g1874"><path
           inkscape:connector-curvature="0"
           id="path1876"
           style="fill:none;stroke:#000000;stroke-width:5.77400017;stroke-linecap:round;stroke-linejoin:miter;stroke-miterlimit:10;stroke-dasharray:none;stroke-opacity:1"
           d="M 0,0 H 387.982" /></g><g
         transform="translate(1730.7349,1376.0088)"
         id="g1878"><path
           inkscape:connector-curvature="0"
           id="path1880"
           style="fill:none;stroke:#000000;stroke-width:5.77400017;stroke-linecap:round;stroke-linejoin:miter;stroke-miterlimit:10;stroke-dasharray:none;stroke-opacity:1"
           d="M 0,0 H 387.982" /></g><g
         transform="translate(1730.7349,1325.2017)"
         id="g1882"><path
           inkscape:connector-curvature="0"
           id="path1884"
           style="fill:none;stroke:#000000;stroke-width:5.77400017;stroke-linecap:round;stroke-linejoin:miter;stroke-miterlimit:10;stroke-dasharray:none;stroke-opacity:1"
           d="M 0,0 H 15.919" /></g><g
         transform="translate(1864.4346,1325.2017)"
         id="g1886"><path
           inkscape:connector-curvature="0"
           id="path1888"
           style="fill:none;stroke:#000000;stroke-width:5.77400017;stroke-linecap:round;stroke-linejoin:miter;stroke-miterlimit:10;stroke-dasharray:none;stroke-opacity:1"
           d="M 0,0 H 84.294" /></g><g
         transform="translate(1730.7349,1274.3945)"
         id="g1890"><path
           inkscape:connector-curvature="0"
           id="path1892"
           style="fill:none;stroke:#000000;stroke-width:5.77400017;stroke-linecap:round;stroke-linejoin:miter;stroke-miterlimit:10;stroke-dasharray:none;stroke-opacity:1"
           d="M 0,0 H 33.24" /></g><g
         transform="translate(1730.7349,1223.5869)"
         id="g1894"><path
           inkscape:connector-curvature="0"
           id="path1896"
           style="fill:none;stroke:#000000;stroke-width:5.77400017;stroke-linecap:round;stroke-linejoin:miter;stroke-miterlimit:10;stroke-dasharray:none;stroke-opacity:1"
           d="M 0,0 H 54.025" /></g><g
         transform="translate(1730.7349,1172.7803)"
         id="g1898"><path
           inkscape:connector-curvature="0"
           id="path1900"
           style="fill:none;stroke:#000000;stroke-width:5.77400017;stroke-linecap:round;stroke-linejoin:miter;stroke-miterlimit:10;stroke-dasharray:none;stroke-opacity:1"
           d="M 0,0 H 49.406" /></g><g
         transform="translate(1730.7349,1121.9727)"
         id="g1902"><path
           inkscape:connector-curvature="0"
           id="path1904"
           style="fill:none;stroke:#000000;stroke-width:5.77400017;stroke-linecap:round;stroke-linejoin:miter;stroke-miterlimit:10;stroke-dasharray:none;stroke-opacity:1"
           d="M 0,0 H 43.632" /></g><g
         transform="translate(1730.7349,1071.165)"
         id="g1906"><path
           inkscape:connector-curvature="0"
           id="path1908"
           style="fill:none;stroke:#000000;stroke-width:5.77400017;stroke-linecap:round;stroke-linejoin:miter;stroke-miterlimit:10;stroke-dasharray:none;stroke-opacity:1"
           d="M 0,0 H 22.848" /></g><g
         transform="translate(1789.625,1071.165)"
         id="g1910"><path
           inkscape:connector-curvature="0"
           id="path1912"
           style="fill:none;stroke:#000000;stroke-width:5.77400017;stroke-linecap:round;stroke-linejoin:miter;stroke-miterlimit:10;stroke-dasharray:none;stroke-opacity:1"
           d="M 0,0 H 163.723" /></g><g
         transform="translate(2113.8516,1274.3945)"
         id="g1914"><path
           inkscape:connector-curvature="0"
           id="path1916"
           style="fill:none;stroke:#000000;stroke-width:5.77400017;stroke-linecap:round;stroke-linejoin:miter;stroke-miterlimit:10;stroke-dasharray:none;stroke-opacity:1"
           d="M 0,0 H -38.104" /></g><g
         transform="translate(2113.8516,1223.5869)"
         id="g1918"><path
           inkscape:connector-curvature="0"
           id="path1920"
           style="fill:none;stroke:#000000;stroke-width:5.77400017;stroke-linecap:round;stroke-linejoin:miter;stroke-miterlimit:10;stroke-dasharray:none;stroke-opacity:1"
           d="M 0,0 H -86.603" /></g><g
         transform="translate(2113.8516,1172.7803)"
         id="g1922"><path
           inkscape:connector-curvature="0"
           id="path1924"
           style="fill:none;stroke:#000000;stroke-width:5.77400017;stroke-linecap:round;stroke-linejoin:miter;stroke-miterlimit:10;stroke-dasharray:none;stroke-opacity:1"
           d="M 0,0 H -107.388" /></g><g
         transform="translate(2113.8516,1121.9727)"
         id="g1926"><path
           inkscape:connector-curvature="0"
           id="path1928"
           style="fill:none;stroke:#000000;stroke-width:5.77400017;stroke-linecap:round;stroke-linejoin:miter;stroke-miterlimit:10;stroke-dasharray:none;stroke-opacity:1"
           d="M 0,0 H -63.509" /></g><g
         transform="translate(2113.8516,1071.165)"
         id="g1930"><path
           inkscape:connector-curvature="0"
           id="path1932"
           style="fill:none;stroke:#000000;stroke-width:5.77400017;stroke-linecap:round;stroke-linejoin:miter;stroke-miterlimit:10;stroke-dasharray:none;stroke-opacity:1"
           d="M 0,0 H -42.724" /></g><g
         transform="translate(1730.7349,1020.3584)"
         id="g1934"><path
           inkscape:connector-curvature="0"
           id="path1936"
           style="fill:none;stroke:#000000;stroke-width:5.77400017;stroke-linecap:round;stroke-linejoin:miter;stroke-miterlimit:10;stroke-dasharray:none;stroke-opacity:1"
           d="M 0,0 H 387.982" /></g></g></g></svg>